<svg width="32" height="32" viewBox="0 0 32 32" fill="none" xmlns="http://www.w3.org/2000/svg">
<path d="M25.3333 4H6.66667C5.95942 4 5.28115 4.28095 4.78105 4.78105C4.28095 5.28115 4 5.95942 4 6.66667V25.3333C4 26.0406 4.28095 26.7189 4.78105 27.219C5.28115 27.719 5.95942 28 6.66667 28H25.3333C26.0406 28 26.7189 27.719 27.219 27.219C27.719 26.7189 28 26.0406 28 25.3333V6.66667C28 5.95942 27.719 5.28115 27.219 4.78105C26.7189 4.28095 26.0406 4 25.3333 4ZM18.5867 19.7467L15.64 22.6667C14.7733 23.56 13.6267 24 12.48 24C11.3333 24 10.1867 23.56 9.33333 22.6667C7.56 20.9467 7.56 18.1067 9.33333 16.3467L11.1333 14.5333L11.12 15.3333C11.1067 16 11.2133 16.6667 11.4267 17.2533L11.4933 17.4533L10.96 18C10.7579 18.1982 10.5974 18.4348 10.4879 18.6957C10.3783 18.9567 10.3219 19.2369 10.3219 19.52C10.3219 19.8031 10.3783 20.0833 10.4879 20.3443C10.5974 20.6052 10.7579 20.8418 10.96 21.04C11.7733 21.8667 13.1867 21.8667 14 21.04L16.9333 18.12C17.3333 17.7067 17.5733 17.16 17.5733 16.5867C17.5733 16 17.3333 15.48 16.9333 15.0667C16.8237 14.9587 16.7366 14.83 16.6772 14.6881C16.6177 14.5462 16.5871 14.3939 16.5871 14.24C16.5871 14.0861 16.6177 13.9338 16.6772 13.7919C16.7366 13.65 16.8237 13.5213 16.9333 13.4133C17.3733 12.9733 18.1467 12.9867 18.5867 13.4133C19.4267 14.2667 19.8933 15.3867 19.8933 16.5867C19.8933 17.7867 19.4267 18.9067 18.5867 19.7467ZM22.6667 15.6533L20.88 17.4667V16.6667C20.8933 16 20.7867 15.3333 20.5733 14.7467L20.5067 14.56L21.04 14C21.2421 13.8018 21.4026 13.5652 21.5121 13.3043C21.6217 13.0433 21.6781 12.7631 21.6781 12.48C21.6781 12.1969 21.6217 11.9167 21.5121 11.6557C21.4026 11.3948 21.2421 11.1582 21.04 10.96C20.2267 10.1333 18.8 10.1467 18 10.96L15.0667 13.8933C14.6667 14.2933 14.4267 14.84 14.4267 15.4133C14.4267 16 14.6667 16.52 15.0667 16.9333C15.2933 17.1467 15.4133 17.44 15.4133 17.76C15.4133 18.08 15.2933 18.3733 15.0667 18.5867C14.9581 18.6946 14.829 18.7797 14.687 18.8369C14.5451 18.8942 14.3931 18.9224 14.24 18.92C13.9467 18.92 13.64 18.8133 13.4133 18.5867C12.5745 17.7463 12.1034 16.6074 12.1034 15.42C12.1034 14.2326 12.5745 13.0937 13.4133 12.2533L16.36 9.33333C16.771 8.91382 17.2617 8.58053 17.8031 8.35301C18.3446 8.12548 18.926 8.00829 19.5133 8.00829C20.1007 8.00829 20.6821 8.12548 21.2235 8.35301C21.765 8.58053 22.2556 8.91382 22.6667 9.33333C23.5333 10.16 24 11.28 24 12.48C24 13.68 23.5333 14.8 22.6667 15.6533Z" fill="#A1A1AA"/>
</svg>
