<svg id="Layer_1" data-name="Layer 1" xmlns="http://www.w3.org/2000/svg" viewBox="0 0 929.89 204.5"><defs><style>.cls-1{font-size:100.78px;font-family:Swiss721BT-Heavy, Swis721 Hv BT;font-weight:800;}.cls-1,.cls-3{fill:#2dd729;}.cls-2{fill:#5b5959;letter-spacing:0em;}</style></defs><text class="cls-1" transform="translate(255.68 137.12)">SOL<tspan class="cls-2" x="211.45" y="0">SHORTS</tspan></text><path class="cls-3" d="M126.71,6.89a95.36,95.36,0,1,0,95.35,95.36A95.36,95.36,0,0,0,126.71,6.89Zm37.81,37.23a16.3,16.3,0,1,1-16.3,16.3A16.3,16.3,0,0,1,164.52,44.12ZM143,87.94h39.08c2.13.07,3.92.62,4.88,2.78,1.1,2.48-.16,4.22-1.83,5.9-5.63,5.63-11.27,11.25-16.79,17a7.16,7.16,0,0,1-4.82,2.35H123.37a4.43,4.43,0,0,1-4.3-2.75c-.92-2.18-.12-3.9,1.46-5.45q9-8.79,17.85-17.64A7,7,0,0,1,143,87.94ZM61.58,50.8c.9-2.11,2.56-2.75,4.61-2.85q18.94,0,37.89,0h5.32c2.49.15,2.76,1,6.69,5.09.42.43.86.85,1.28,1.29,4.51,4.65,9,9.29,13.51,14,2.14,2.23,2.36,4.64.71,6.71-1.12,1.41-2.64,1.67-4.29,1.7H85.61a7.3,7.3,0,0,1-4.93-2.39q-8.66-9-17.46-17.75C61.56,54.9,60.59,53.14,61.58,50.8Zm44.69,48.84A16.3,16.3,0,1,1,90,83.34,16.3,16.3,0,0,1,106.27,99.64Zm76.31,51c-3.07,3.47-6.41,4.48-10.83,4.46C137,155,102.25,155,67.49,155a20.26,20.26,0,0,1-2.34-.08,4.23,4.23,0,0,1-3.67-2.9,4.18,4.18,0,0,1,1-4.62c6.09-6.34,12.13-12.74,18.36-18.93a6.57,6.57,0,0,1,4.31-1.32c18.12-.09,36.25-.06,54.38-.06h53.6c.58,0,1.17,0,1.76,0a4.51,4.51,0,0,1,3,7.9C192.69,140.2,187.39,145.2,182.58,150.65Z"/></svg>