<svg width="192" height="191" viewBox="0 0 192 191" fill="none" xmlns="http://www.w3.org/2000/svg">
<rect width="192" height="191" fill="#E5E5E5"/>
<rect width="470" height="390" transform="translate(-126 -102)" fill="white"/>
<path d="M95.7099 5.24572e-07C76.849 -0.00197733 58.4112 5.58911 42.728 16.0662C27.0448 26.5433 14.8207 41.4358 7.60161 58.8604C0.382499 76.285 -1.50737 95.459 2.17098 113.958C5.84934 132.456 14.9307 149.449 28.2666 162.786C41.6026 176.123 58.5941 185.207 77.0924 188.887C95.5907 192.567 114.765 190.679 132.19 183.462C149.616 176.245 164.509 164.022 174.988 148.34C185.467 132.658 191.06 114.221 191.06 95.36C191.06 70.0707 181.014 45.817 163.133 27.9338C145.252 10.0507 120.999 0.00265251 95.7099 5.24572e-07ZM133.52 37.23C136.744 37.23 139.895 38.186 142.576 39.977C145.256 41.7681 147.345 44.3138 148.579 47.2923C149.813 50.2707 150.136 53.5481 149.507 56.71C148.878 59.8719 147.325 62.7762 145.046 65.0558C142.766 67.3354 139.862 68.8879 136.7 69.5168C133.538 70.1457 130.261 69.8229 127.282 68.5892C124.304 67.3555 121.758 65.2663 119.967 62.5858C118.176 59.9053 117.22 56.7538 117.22 53.53C117.22 51.3895 117.642 49.2699 118.461 47.2923C119.28 45.3147 120.48 43.5178 121.994 42.0042C123.508 40.4906 125.305 39.2899 127.282 38.4708C129.26 37.6516 131.379 37.23 133.52 37.23ZM112 81.05H151.08C153.21 81.12 155 81.67 155.96 83.83C157.06 86.31 155.8 88.05 154.13 89.73C148.5 95.36 142.86 100.98 137.34 106.73C136.098 108.108 134.37 108.951 132.52 109.08H92.3699C91.457 109.121 90.5538 108.879 89.784 108.387C89.0142 107.894 88.4155 107.176 88.0699 106.33C87.1499 104.15 87.9499 102.43 89.5299 100.88C95.5299 95.02 101.48 89.14 107.38 83.24C108.589 81.9536 110.239 81.1714 112 81.05ZM30.5799 43.91C31.4799 41.8 33.1399 41.16 35.1899 41.06C47.8166 41.06 60.4466 41.06 73.0799 41.06H78.3999C80.8899 41.21 81.1599 42.06 85.0899 46.15C85.5099 46.58 85.9499 47 86.3699 47.44C90.8799 52.09 95.3699 56.73 99.8799 61.44C102.02 63.67 102.24 66.08 100.59 68.15C99.4699 69.56 97.9499 69.82 96.2999 69.85H54.6099C52.7186 69.7236 50.9506 68.8665 49.6799 67.46C43.9066 61.46 38.0866 55.5433 32.2199 49.71C30.5599 48.01 29.5899 46.25 30.5799 43.91ZM75.2699 92.75C75.2699 95.9751 74.3131 99.1277 72.5207 101.809C70.7283 104.49 68.1809 106.579 65.2007 107.812C62.2205 109.045 58.9416 109.366 55.7789 108.735C52.6162 108.103 49.7118 106.548 47.4334 104.265C45.155 101.983 43.605 99.0754 42.9794 95.9115C42.3539 92.7477 42.681 89.4694 43.9193 86.4914C45.1576 83.5135 47.2515 80.9699 49.9359 79.1824C52.6204 77.395 55.7748 76.4441 58.9999 76.45C63.3177 76.4579 67.456 78.1788 70.5063 81.2348C73.5567 84.2907 75.2699 88.4322 75.2699 92.75ZM151.58 143.75C148.51 147.22 145.17 148.23 140.75 148.21C106 148.11 71.2499 148.11 36.4899 148.11C35.709 148.128 34.9277 148.102 34.1499 148.03C33.3208 147.961 32.5304 147.649 31.8776 147.133C31.2248 146.618 30.7386 145.921 30.4799 145.13C30.1608 144.349 30.0856 143.49 30.2641 142.665C30.4426 141.84 30.8664 141.089 31.4799 140.51C37.5699 134.17 43.6099 127.77 49.8399 121.58C51.0759 120.646 52.6025 120.178 54.1499 120.26C72.2699 120.17 90.3999 120.2 108.53 120.2H162.13C162.71 120.2 163.3 120.2 163.89 120.2C164.809 120.195 165.708 120.471 166.466 120.99C167.224 121.51 167.805 122.249 168.132 123.109C168.458 123.968 168.514 124.907 168.292 125.799C168.07 126.691 167.581 127.494 166.89 128.1C161.69 133.31 156.39 138.31 151.58 143.76V143.75Z" fill="#2DD729"/>
</svg>
