<svg width="180" height="39" viewBox="0 0 180 39" fill="none" xmlns="http://www.w3.org/2000/svg">
<path fill-rule="evenodd" clip-rule="evenodd" d="M14.2716 37.6061C24.3445 40.1039 34.5349 33.9638 37.0327 23.8913C39.5263 13.8383 33.4145 3.664 23.3687 1.14293C23.3546 1.13905 23.3401 1.13546 23.3259 1.13192L23.3175 1.12982C13.2451 -1.36799 3.05467 4.77255 0.556853 14.8454C-1.94096 24.9179 4.19915 35.1087 14.2716 37.6061ZM18.0897 17.586C19.5021 17.9643 22.5225 18.7733 23.0575 16.6333H23.0398C23.5849 14.4429 20.5972 13.7878 19.1629 13.4733C19.0053 13.4387 18.8665 13.4083 18.7531 13.3804L17.7258 17.4907C17.8292 17.5163 17.9518 17.5491 18.0897 17.586ZM16.479 24.2074C18.1619 24.6521 21.8358 25.6228 22.4174 23.2752C23.0128 20.8768 19.47 20.0775 17.7269 19.6843C17.5277 19.6393 17.352 19.5997 17.2087 19.5636L16.0756 24.1026C16.1914 24.1314 16.3271 24.1672 16.479 24.2074ZM23.0047 11.9302C25.5824 12.8227 27.4849 14.1672 27.115 16.6688L27.1146 16.67C26.8271 18.5257 25.8285 19.389 24.4781 19.7002C26.3278 20.6633 27.2731 22.1371 26.3747 24.6975C25.259 27.8798 22.6225 28.1449 19.0994 27.4807L18.2479 30.8981L16.1868 30.3873L17.0206 26.9873C16.4845 26.8579 15.9378 26.7171 15.3823 26.5645L14.5367 29.9527L12.4756 29.4361L13.3271 26.0128L11.8592 25.631L9.17578 24.9672L10.1977 22.6182C10.1977 22.6182 11.7011 23.0173 11.7011 22.9882H11.7015C12.0977 23.1141 12.5204 22.8964 12.6464 22.5007L13.9913 17.0924L14.2086 17.1512C14.1406 17.1203 14.0695 17.0971 13.9972 17.0806L14.9603 13.2227C15.0056 12.6367 14.5803 12.1188 13.9972 12.0482C14.0264 12.0245 12.4997 11.6723 12.4997 11.6723L13.046 9.47001L15.8938 10.1807L17.2091 10.4741L18.0547 7.08592L20.1158 7.60257L19.2939 10.9379C19.846 11.0614 20.4037 11.1907 20.944 11.3256L21.7659 8.02535L23.8503 8.542L23.0047 11.9302Z" fill="#3F3F46"/>
<path d="M48.9246 32.2644C50.0221 32.2678 51.1019 31.9883 52.0604 31.4539C53.0467 30.928 53.9143 30.2038 54.6089 29.3282C55.3327 28.4023 55.9018 27.3652 56.2942 26.257C56.7081 25.1121 56.9182 23.9042 56.9165 22.687C56.9825 21.4521 56.7186 20.2218 56.153 19.1225C55.6481 18.2711 54.7083 17.8368 53.3461 17.8368C52.7525 17.8571 52.1623 17.9379 51.5843 18.0774C50.8669 18.2377 50.2031 18.5818 49.6581 19.0756L46.546 32.0881L47.0453 32.182C47.1937 32.2183 47.3455 32.242 47.4973 32.2526C47.6922 32.2767 47.8883 32.2864 48.0845 32.2817L48.9242 32.264L48.9246 32.2644ZM55.1078 11.9238C56.4671 11.8925 57.8166 12.1698 59.0537 12.7342C60.1276 13.2462 61.0712 13.995 61.8136 14.9247C62.5738 15.8861 63.1327 16.99 63.4578 18.1717C63.8138 19.4747 63.9893 20.82 63.9804 22.1708C63.9787 26.3733 62.3497 30.4113 59.4355 33.4393C58.0225 34.8886 56.3415 36.0488 54.4855 36.8567C52.5394 37.7133 50.4344 38.15 48.3082 38.1369H46.8047C45.9875 38.1103 45.1715 38.0401 44.3619 37.9255C43.373 37.7822 42.393 37.5864 41.4261 37.3383C40.4122 37.0977 39.428 36.7472 38.4902 36.2931L46.7405 1.73041L54.11 0.555908L51.1742 12.8226C51.7856 12.5461 52.4202 12.3241 53.0708 12.1593C53.7414 11.9961 54.4301 11.9149 55.1201 11.9187L55.1082 11.9246L55.1078 11.9238Z" fill="#3F3F46"/>
<path d="M75.0187 9.4042C74.0581 9.4135 73.1217 9.10572 72.3526 8.52946C71.5375 7.88471 71.0969 6.87637 71.1781 5.84012C71.1747 5.19368 71.3126 4.554 71.5831 3.96675C71.8423 3.39473 72.2063 2.87681 72.6579 2.44008C73.109 2.01137 73.6315 1.66553 74.2023 1.4182C74.7959 1.16326 75.4356 1.03347 76.0812 1.03643C77.035 1.03347 77.9626 1.34295 78.7236 1.91709C79.537 2.56311 79.9772 3.5706 79.8981 4.60643C79.9032 5.25456 79.767 5.89593 79.499 6.48529C79.2398 7.05436 78.8775 7.56973 78.4302 8.00605C77.9803 8.43645 77.4578 8.78228 76.8857 9.02792C76.2921 9.28286 75.6525 9.41097 75.0069 9.40378H75.0187V9.4042ZM71.5954 37.467H64.5488L70.5029 12.4516H77.5905L71.595 37.467H71.5954Z" fill="#3F3F46"/>
<path d="M83.756 6.22199L91.1251 5.08301L89.2932 12.4526H97.1858L95.7639 18.2541H87.9365L85.8462 26.9799C85.6653 27.6479 85.5532 28.3329 85.5114 29.0241C85.4682 29.583 85.5511 30.1445 85.7519 30.6675C85.9485 31.1368 86.3126 31.516 86.7738 31.7304C87.4376 32.0238 88.1622 32.1574 88.8877 32.1181C89.631 32.1206 90.3726 32.0475 91.1015 31.9007C91.835 31.7574 92.5575 31.5612 93.2623 31.3135L93.7908 36.7391C92.7791 37.1027 91.7454 37.4033 90.696 37.6375C89.3993 37.9128 88.0756 38.0409 86.7501 38.0193C84.5597 38.0193 82.8685 37.6904 81.6589 37.0444C80.5276 36.4689 79.6211 35.5304 79.0871 34.3783C78.5658 33.156 78.3384 31.8284 78.4238 30.5026C78.5028 28.9472 78.7248 27.4023 79.0871 25.887L83.7555 6.19832V6.22199H83.756Z" fill="#3F3F46"/>
<path d="M96.9273 27.4789C96.9125 25.4039 97.2659 23.3415 97.9724 21.39C98.6349 19.5445 99.6525 17.847 100.967 16.3931C102.292 14.9509 103.904 13.8031 105.7 13.0218C107.658 12.1762 109.773 11.7538 111.906 11.7834C113.194 11.7682 114.479 11.9039 115.735 12.188C116.791 12.4383 117.818 12.7964 118.8 13.2568L116.352 18.759C115.718 18.5006 115.06 18.2783 114.379 18.0719C113.566 17.8458 112.726 17.7409 111.883 17.7608C109.754 17.6838 107.706 18.5839 106.322 20.2036C104.948 21.8199 104.258 23.9926 104.255 26.7217C104.19 28.1059 104.556 29.4757 105.3 30.6447C105.996 31.6429 107.281 32.1414 109.152 32.1414C110.049 32.1422 110.943 32.0458 111.818 31.8539C112.599 31.6873 113.364 31.4497 114.103 31.1432L114.625 36.8043C113.665 37.1679 112.684 37.4778 111.689 37.7315C110.426 38.0164 109.133 38.1509 107.837 38.1314C106.118 38.1813 104.406 37.8917 102.799 37.2795C101.521 36.7646 100.371 35.9773 99.4285 34.9724C98.5343 33.9983 97.8735 32.8331 97.4967 31.566C97.0981 30.2325 96.9002 28.8471 96.9095 27.4557L96.9273 27.4793V27.4789Z" fill="#3F3F46"/>
<path d="M131.695 17.7839C130.701 17.77 129.73 18.0858 128.935 18.6823C128.129 19.3064 127.452 20.083 126.945 20.9667C126.386 21.9074 125.967 22.9246 125.7 23.9858C125.442 25.003 125.307 26.0473 125.301 27.0971C125.237 28.3785 125.498 29.6545 126.058 30.8083C126.57 31.6948 127.485 32.1413 128.818 32.1413C129.814 32.1582 130.786 31.8399 131.578 31.237C132.386 30.6129 133.064 29.8363 133.575 28.9535C134.125 28.0115 134.534 26.9947 134.791 25.9344C135.046 24.9151 135.18 23.8682 135.189 22.8163C135.255 21.5357 134.994 20.2585 134.432 19.1051C133.921 18.2245 132.999 17.778 131.672 17.778L131.695 17.7839H131.695ZM128.172 38.1364C126.676 38.1711 125.188 37.9115 123.791 37.3729C122.617 36.9095 121.567 36.1781 120.726 35.2353C119.899 34.2857 119.276 33.1767 118.894 31.9764C118.479 30.6307 118.28 29.227 118.307 27.8192C118.312 25.8803 118.622 23.9536 119.23 22.1116C119.819 20.2576 120.738 18.5255 121.942 16.9971C123.151 15.4692 124.655 14.1991 126.363 13.2627C128.202 12.2738 130.265 11.774 132.353 11.8121C133.84 11.785 135.32 12.0446 136.71 12.5756C137.886 13.0314 138.942 13.7531 139.793 14.6836C140.615 15.6358 141.236 16.7443 141.619 17.9425C142.037 19.2895 142.235 20.6952 142.206 22.1056C142.2 24.0428 141.897 25.9682 141.308 27.8132C140.729 29.6697 139.826 31.4086 138.642 32.9514C137.45 34.4857 135.952 35.7557 134.244 36.6803C132.376 37.6743 130.287 38.1757 128.172 38.1364Z" fill="#3F3F46"/>
<path d="M153.335 9.40432C152.376 9.41446 151.44 9.10668 150.675 8.52957C149.859 7.88483 149.419 6.87648 149.5 5.84023C149.497 5.1938 149.635 4.55412 149.905 3.96687C150.157 3.3978 150.511 2.88074 150.95 2.44019C151.404 2.01276 151.928 1.66692 152.5 1.41832C153.092 1.1638 153.73 1.03401 154.374 1.03655C155.335 1.02809 156.273 1.33841 157.04 1.91721C157.854 2.56322 158.293 3.57072 158.215 4.60655C158.216 5.25552 158.076 5.89689 157.803 6.4854C157.549 7.0549 157.187 7.57112 156.741 8.00616C156.291 8.43656 155.768 8.7824 155.196 9.02804C154.608 9.28044 153.974 9.40854 153.334 9.40389L153.335 9.40432ZM149.918 37.4671H142.871L148.814 12.4518H155.907L149.918 37.4671Z" fill="#3F3F46"/>
<path d="M160.979 13.5912C161.513 13.4386 162.106 13.2504 162.74 13.0454C163.375 12.8399 164.114 12.6518 164.93 12.4581C165.825 12.2683 166.729 12.1254 167.638 12.0294C168.767 11.9102 169.902 11.8531 171.038 11.8591C174.749 11.8591 177.309 12.9372 178.718 15.0946C179.562 16.3867 179.989 17.9628 179.999 19.8235V19.9575C179.993 21.1675 179.813 22.4964 179.458 23.9436L176.223 37.449H169.153L172.294 24.2247C172.482 23.4032 172.635 22.6046 172.746 21.8237C172.869 21.1477 172.869 20.4556 172.746 19.7804C172.63 19.216 172.318 18.7112 171.866 18.3535C171.239 17.9425 170.493 17.7506 169.746 17.8072C168.805 17.8089 167.866 17.9053 166.945 18.0952L162.329 37.4727H155.218L160.979 13.5912Z" fill="#3F3F46"/>
</svg>
