<svg width="180" height="46" viewBox="0 0 180 46" fill="none" xmlns="http://www.w3.org/2000/svg">
<path d="M51.0324 26.7592C51.0298 26.916 50.9652 27.0653 50.8528 27.1746C50.7403 27.2839 50.5892 27.3443 50.4324 27.3425H39.3824C39.6658 30.0758 41.7158 32.5758 44.6158 32.5758C46.5991 32.5758 48.0657 31.8258 49.1657 30.2425C49.217 30.1593 49.2878 30.09 49.3721 30.0406C49.4564 29.9912 49.5515 29.9632 49.6491 29.9592C49.7219 29.9571 49.7943 29.9699 49.862 29.9968C49.9296 30.0237 49.9911 30.0642 50.0426 30.1157C50.0941 30.1671 50.1345 30.2286 50.1614 30.2963C50.1883 30.3639 50.2012 30.4364 50.1991 30.5092C50.1995 30.6097 50.1705 30.7082 50.1157 30.7925C48.9991 32.7258 46.7824 33.6758 44.6158 33.6758C40.8991 33.6758 38.2324 30.3425 38.2324 26.7925C38.2324 23.2425 40.8824 19.9092 44.6158 19.9092C48.3491 19.9092 51.0157 23.2092 51.0324 26.7592ZM49.8491 26.2425C49.6157 23.5092 47.5157 21.0092 44.6158 21.0092C41.7158 21.0092 39.6658 23.5092 39.3824 26.2425H49.8491Z" fill="#3F3F46"/>
<path d="M64.4669 20.176C64.6114 20.1802 64.7489 20.2394 64.8511 20.3417C64.9534 20.4439 65.0127 20.5814 65.0169 20.726C65.0189 20.7988 65.0061 20.8712 64.9792 20.9389C64.9523 21.0065 64.9119 21.068 64.8604 21.1195C64.8089 21.171 64.7474 21.2114 64.6798 21.2383C64.6121 21.2652 64.5397 21.278 64.4669 21.276H61.5002V32.926C61.4989 33.0714 61.4405 33.2106 61.3377 33.3134C61.2348 33.4163 61.0957 33.4746 60.9502 33.476C60.8057 33.4718 60.6682 33.4125 60.5659 33.3102C60.4637 33.208 60.4044 33.0705 60.4002 32.926V21.276H57.5502C57.4774 21.278 57.405 21.2652 57.3373 21.2383C57.2696 21.2114 57.2082 21.171 57.1567 21.1195C57.1052 21.068 57.0648 21.0065 57.0379 20.9389C57.011 20.8712 56.9981 20.7988 57.0002 20.726C57.0015 20.5805 57.0599 20.4414 57.1627 20.3385C57.2656 20.2356 57.4047 20.1773 57.5502 20.176H60.4002V15.926C60.4005 15.7851 60.451 15.649 60.5427 15.5421C60.6343 15.4352 60.7611 15.3645 60.9002 15.3426C60.978 15.3323 61.0571 15.3389 61.1321 15.3619C61.207 15.385 61.2762 15.4239 61.3347 15.4762C61.3933 15.5284 61.4399 15.5926 61.4713 15.6645C61.5027 15.7364 61.5183 15.8142 61.5169 15.8926V20.176H64.4669Z" fill="#3F3F46"/>
<path d="M82.5493 25.8092V32.8592C82.5451 33.0038 82.4858 33.1412 82.3836 33.2435C82.2813 33.3457 82.1438 33.405 81.9993 33.4092C81.9265 33.4113 81.8541 33.3985 81.7864 33.3716C81.7187 33.3447 81.6573 33.3042 81.6058 33.2527C81.5543 33.2013 81.5138 33.1398 81.4869 33.0721C81.46 33.0045 81.4472 32.932 81.4493 32.8592V25.8092C81.4493 23.4259 80.0993 21.0592 77.4493 21.0592C74.0493 21.0592 72.5826 24.0259 72.7826 27.0759C72.7826 27.1592 72.816 27.5092 72.816 27.5592V32.8426C72.8157 32.9834 72.7652 33.1195 72.6735 33.2264C72.5819 33.3333 72.4551 33.4041 72.316 33.4259C72.2382 33.4362 72.1591 33.4296 72.0841 33.4066C72.0091 33.3835 71.94 33.3446 71.8815 33.2924C71.8229 33.2401 71.7763 33.1759 71.7449 33.104C71.7135 33.0321 71.6979 32.9543 71.6993 32.8759V9.69258C71.7006 9.54711 71.759 9.40797 71.8618 9.30511C71.9647 9.20225 72.1038 9.14388 72.2493 9.14258C72.3938 9.14677 72.5313 9.20606 72.6336 9.30831C72.7358 9.41056 72.7951 9.54803 72.7993 9.69258V22.7926C73.7493 21.0926 75.4493 19.9426 77.4326 19.9426C80.6993 19.9426 82.5493 22.7926 82.5493 25.8092Z" fill="#3F3F46"/>
<path d="M102.399 26.7592C102.396 26.916 102.331 27.0653 102.219 27.1746C102.107 27.2839 101.955 27.3443 101.799 27.3425H90.7486C91.032 30.0758 93.082 32.5758 95.982 32.5758C97.9653 32.5758 99.432 31.8258 100.532 30.2425C100.583 30.1593 100.654 30.09 100.738 30.0406C100.823 29.9912 100.918 29.9632 101.015 29.9592C101.088 29.9571 101.161 29.9699 101.228 29.9968C101.296 30.0237 101.357 30.0642 101.409 30.1157C101.46 30.1671 101.501 30.2286 101.528 30.2963C101.555 30.3639 101.567 30.4364 101.565 30.5092C101.566 30.6097 101.537 30.7082 101.482 30.7925C100.365 32.7258 98.1486 33.6758 95.982 33.6758C92.2653 33.6758 89.5986 30.3425 89.5986 26.7925C89.5986 23.2425 92.2486 19.9092 95.982 19.9092C99.682 19.9092 102.382 23.2092 102.399 26.7592ZM101.199 26.2425C100.965 23.5092 98.8653 21.0092 95.9653 21.0092C93.0653 21.0092 91.0153 23.5092 90.732 26.2425H101.199Z" fill="#3F3F46"/>
<path d="M115.983 20.6927C115.993 20.8407 115.945 20.9868 115.848 21.0992C115.751 21.2116 115.614 21.2812 115.466 21.2927C112.216 21.776 110.75 24.426 110.75 27.5094V32.7927C110.749 32.9335 110.699 33.0696 110.607 33.1765C110.515 33.2835 110.389 33.3542 110.25 33.376C110.172 33.3863 110.093 33.3798 110.018 33.3567C109.943 33.3337 109.874 33.2947 109.815 33.2425C109.757 33.1903 109.71 33.126 109.678 33.0541C109.647 32.9823 109.631 32.9045 109.633 32.826V20.776C109.633 20.6352 109.684 20.4991 109.775 20.3922C109.867 20.2852 109.994 20.2145 110.133 20.1927C110.211 20.1824 110.29 20.1889 110.365 20.212C110.44 20.235 110.509 20.274 110.567 20.3262C110.626 20.3784 110.673 20.4427 110.704 20.5146C110.735 20.5864 110.751 20.6643 110.75 20.7427V23.1927C111.666 21.6427 113.483 20.176 115.383 20.176C115.666 20.176 115.983 20.376 115.983 20.6927Z" fill="#3F3F46"/>
<path d="M134.148 26.7592C134.145 26.916 134.08 27.0653 133.968 27.1746C133.856 27.2839 133.704 27.3443 133.548 27.3425H122.498C122.781 30.0758 124.831 32.5758 127.731 32.5758C129.714 32.5758 131.181 31.8258 132.281 30.2425C132.332 30.1593 132.403 30.09 132.487 30.0406C132.572 29.9912 132.667 29.9632 132.764 29.9592C132.837 29.9571 132.91 29.9699 132.977 29.9968C133.045 30.0237 133.106 30.0642 133.158 30.1157C133.209 30.1671 133.25 30.2286 133.277 30.2963C133.304 30.3639 133.316 30.4364 133.314 30.5092C133.315 30.6097 133.286 30.7082 133.231 30.7925C132.114 32.7258 129.898 33.6758 127.731 33.6758C124.014 33.6758 121.348 30.3425 121.348 26.7925C121.348 23.2425 123.998 19.9092 127.731 19.9092C131.464 19.9092 134.131 23.2092 134.148 26.7592ZM132.964 26.2425C132.731 23.5092 130.631 21.0092 127.731 21.0092C124.831 21.0092 122.781 23.5092 122.498 26.2425H132.964Z" fill="#3F3F46"/>
<path d="M152.017 20.8261V32.9261C152.013 33.0707 151.953 33.2081 151.851 33.3104C151.749 33.4126 151.611 33.4719 151.467 33.4761C151.394 33.4782 151.322 33.4654 151.254 33.4385C151.186 33.4116 151.125 33.3711 151.073 33.3196C151.022 33.2682 150.981 33.2067 150.954 33.139C150.928 33.0714 150.915 32.9989 150.917 32.9261V30.6261C150 32.4428 148.383 33.7595 146.317 33.7595C143.033 33.7595 141.217 30.9095 141.217 27.8928V20.8095C141.218 20.664 141.276 20.5249 141.379 20.422C141.482 20.3191 141.621 20.2608 141.767 20.2595C141.911 20.2637 142.049 20.323 142.151 20.4252C142.253 20.5275 142.313 20.6649 142.317 20.8095V27.8928C142.317 30.2761 143.667 32.6428 146.317 32.6428C150.033 32.6428 150.917 29.1595 150.917 25.3095V20.7928C150.918 20.7036 150.941 20.6161 150.983 20.5374C151.025 20.4588 151.085 20.3913 151.158 20.3407C151.232 20.2901 151.316 20.2579 151.405 20.2466C151.493 20.2354 151.583 20.2455 151.667 20.2761C151.772 20.3248 151.86 20.4025 151.922 20.5C151.984 20.5974 152.017 20.7106 152.017 20.8261Z" fill="#3F3F46"/>
<path d="M179.999 25.7595V32.8429C179.995 32.9874 179.936 33.1249 179.834 33.2271C179.731 33.3294 179.594 33.3887 179.449 33.3929C179.376 33.3949 179.304 33.3821 179.236 33.3552C179.169 33.3283 179.107 33.2879 179.056 33.2364C179.004 33.1849 178.964 33.1234 178.937 33.0558C178.91 32.9881 178.897 32.9156 178.899 32.8429V25.7595C178.899 23.3762 177.549 21.0429 174.899 21.0429C171.566 21.0429 170.299 24.6095 170.299 27.3762V32.8429C170.295 32.9874 170.236 33.1249 170.134 33.2271C170.031 33.3294 169.894 33.3887 169.749 33.3929C169.677 33.3949 169.604 33.3821 169.536 33.3552C169.469 33.3283 169.407 33.2879 169.356 33.2364C169.304 33.1849 169.264 33.1234 169.237 33.0558C169.21 32.9881 169.197 32.9156 169.199 32.8429V25.7595C169.199 23.3762 167.849 21.0429 165.199 21.0429C161.833 21.0429 160.449 23.6929 160.566 27.2262C160.566 27.3095 160.599 27.4595 160.566 27.5095V32.8262C160.566 32.967 160.515 33.1031 160.424 33.2101C160.332 33.317 160.205 33.3877 160.066 33.4095C159.988 33.4199 159.909 33.4133 159.834 33.3902C159.759 33.3672 159.69 33.3282 159.631 33.276C159.573 33.2238 159.526 33.1595 159.495 33.0877C159.463 33.0158 159.448 32.938 159.449 32.8595V20.7762C159.45 20.6354 159.5 20.4993 159.592 20.3923C159.683 20.2854 159.81 20.2147 159.949 20.1929C160.027 20.1825 160.106 20.1891 160.181 20.2122C160.256 20.2352 160.325 20.2742 160.384 20.3264C160.442 20.3786 160.489 20.4429 160.52 20.5147C160.552 20.5866 160.567 20.6644 160.566 20.7429V22.7595C161.516 21.0595 163.216 19.9429 165.199 19.9429C167.449 19.9429 169.199 21.3762 169.916 23.4595C170.833 21.3929 172.616 19.9429 174.899 19.9429C178.149 19.9429 179.999 22.7595 179.999 25.7595Z" fill="#3F3F46"/>
<path opacity="0.6" d="M13.8323 17.4924L-0.000976562 23.7758L13.8323 31.9591L27.6823 23.7758L13.8323 17.4924Z" fill="#3F3F46"/>
<path opacity="0.45" d="M-0.000976562 23.776L13.8323 31.9593V0.809326L-0.000976562 23.776Z" fill="#3F3F46"/>
<path opacity="0.8" d="M13.832 0.809326V31.9593L27.682 23.776L13.832 0.809326Z" fill="#3F3F46"/>
<path opacity="0.45" d="M-0.000976562 26.4092L13.8323 45.9092V34.5758L-0.000976562 26.4092Z" fill="#3F3F46"/>
<path opacity="0.8" d="M13.832 34.5758V45.9092L27.682 26.4092L13.832 34.5758Z" fill="#3F3F46"/>
</svg>
