<svg width="180" height="51" viewBox="0 0 180 51" fill="none" xmlns="http://www.w3.org/2000/svg">
<path d="M25.3594 0C11.3549 0 0 11.3549 0 25.3594C0 39.3638 11.3549 50.7188 25.3594 50.7188C39.3638 50.7188 50.7188 39.3638 50.7188 25.3594C50.6897 11.3549 39.3638 0 25.3594 0ZM25.7379 26.1746L23.1175 35.0839H37.2093C37.7043 35.0839 38.0245 35.5497 37.9081 36.0156L36.6852 40.2373C36.5688 40.6449 36.1903 40.9361 35.7535 40.9361H14.2082L17.8477 28.6203L13.8297 29.8723L14.7032 26.9607L18.7502 25.7088L23.8745 8.41431C23.991 8.0067 24.3695 7.71554 24.8062 7.71554H30.2508C30.7457 7.71554 31.066 8.18139 30.9495 8.64723L26.6113 23.2631L30.6292 22.0111L29.7558 24.9518L25.7379 26.1746Z" fill="#3F3F46"/>
<path d="M65.3631 7.68628H63.7908C63.4997 7.68628 63.2959 7.86097 63.2376 8.15212L59.1615 40.4409C59.1324 40.7612 59.2197 40.9068 59.54 40.9068H61.1122C61.4325 40.9068 61.6072 40.7612 61.6654 40.4409L65.7707 8.15212C65.858 7.83186 65.6833 7.68628 65.3631 7.68628Z" fill="#3F3F46"/>
<path d="M73.6036 17.0032H72.0313C71.7402 17.0032 71.5364 17.1487 71.4782 17.469L68.5666 40.4701C68.5375 40.7903 68.7122 40.9359 69.0034 40.9359H70.5756C70.8667 40.9359 71.0705 40.7903 71.1288 40.4701L74.0112 17.4981C74.0403 17.1779 73.9238 17.0032 73.6036 17.0032Z" fill="#3F3F46"/>
<path d="M142.491 16.6248C140.307 16.6248 138.414 17.2362 136.813 18.4881C135.212 19.7401 134.164 21.3705 133.64 23.4086C133.203 25.0682 132.824 27.3974 132.65 28.9696C132.417 31.095 132.213 32.842 132.213 34.5306C132.242 36.5978 132.912 38.2283 134.164 39.4802C135.445 40.7031 137.192 41.3436 139.404 41.3436C141.559 41.3436 143.451 40.7322 145.053 39.4802C146.654 38.2574 147.702 36.5978 148.226 34.5306C148.576 33.1622 148.925 31.328 149.216 28.9696C149.507 26.5239 149.653 24.6606 149.653 23.3795C149.653 21.3414 149.012 19.711 147.731 18.4881C146.421 17.2362 144.674 16.6248 142.491 16.6248ZM146.916 26.7277C146.771 27.8924 146.683 28.6494 146.654 28.9696C146.363 31.3571 146.101 33.0458 145.868 34.0648C145.519 35.5788 144.762 36.8016 143.626 37.7333C142.491 38.665 141.151 39.1017 139.666 39.1017C138.152 39.1017 136.959 38.6359 136.056 37.7333C135.154 36.8307 134.717 35.637 134.717 34.1521C134.717 33.366 134.804 32.3761 134.95 31.2115C135.095 30.0469 135.183 29.2899 135.212 28.9696C135.503 26.6986 135.765 25.0099 135.998 23.8745C136.347 22.3605 137.104 21.1376 138.24 20.2059C139.375 19.2742 140.715 18.8375 142.199 18.8375C143.713 18.8375 144.907 19.3034 145.81 20.1768C146.712 21.0794 147.149 22.2731 147.149 23.758C147.149 24.6023 147.062 25.5631 146.916 26.7277Z" fill="#3F3F46"/>
<path d="M158.62 17.0032H157.077C156.786 17.0032 156.582 17.1779 156.524 17.469L153.583 40.4701C153.554 40.7903 153.729 40.9359 154.02 40.9359H155.592C155.883 40.9359 156.087 40.7903 156.145 40.4701L159.028 17.4981C159.057 17.1779 158.94 17.0032 158.62 17.0032Z" fill="#3F3F46"/>
<path d="M178.477 18.3715C177.399 17.2361 175.885 16.6829 173.905 16.6829C172.624 16.6829 171.46 16.9158 170.382 17.4107C169.305 17.9057 168.403 18.6336 167.646 19.6235C167.5 19.74 167.442 19.7108 167.442 19.5362L167.675 17.4981C167.704 17.2069 167.587 17.0322 167.296 17.0322H165.724C165.433 17.0322 165.229 17.2069 165.171 17.4981L162.288 40.47C162.259 40.7612 162.347 40.9359 162.667 40.9359H164.239C164.53 40.9359 164.734 40.7612 164.763 40.47L166.86 23.9908C167.209 22.4477 167.937 21.1957 169.014 20.2932C170.091 19.3906 171.372 18.9247 172.886 18.9247C174.284 18.9247 175.39 19.3615 176.206 20.2349C177.021 21.1084 177.428 22.273 177.428 23.7579C177.428 24.1946 177.399 24.544 177.37 24.806L175.361 40.47C175.361 40.6156 175.361 40.7029 175.419 40.7903C175.507 40.8776 175.623 40.9359 175.798 40.9359H177.37C177.661 40.9359 177.865 40.7903 177.894 40.47L179.903 24.4275C179.961 23.787 179.991 23.3211 179.991 23.0009C180.078 21.021 179.554 19.4779 178.477 18.3715Z" fill="#3F3F46"/>
<path d="M74.622 7.71581C73.6903 7.22085 72.4966 7.57023 72.0308 8.53103C71.5358 9.46272 71.9143 10.6564 72.846 11.1514C73.7777 11.6464 74.9423 11.2679 75.4373 10.3362C75.9322 9.37538 75.5828 8.21077 74.622 7.71581Z" fill="#3F3F46"/>
<path d="M159.756 7.71581C158.824 7.22085 157.63 7.57023 157.165 8.53103C156.67 9.46272 157.048 10.6564 157.98 11.1514C158.911 11.6464 160.105 11.2679 160.6 10.3362C161.066 9.37538 160.688 8.21077 159.756 7.71581Z" fill="#3F3F46"/>
<path d="M121.994 16.6248C119.81 16.6248 117.917 17.2653 116.316 18.4881C114.715 19.7401 113.667 21.3705 113.142 23.4086C112.706 25.0682 112.298 27.6886 112.153 28.9696C111.949 30.833 111.716 32.842 111.716 34.5306C111.745 36.5978 112.415 38.2283 113.667 39.4802C114.948 40.7031 116.695 41.3436 118.907 41.3436C121.062 41.3436 122.954 40.7322 124.556 39.4802C126.157 38.2574 127.205 36.5978 127.729 34.5306C127.758 34.3559 127.817 34.1813 127.846 34.0066C127.875 33.861 127.758 33.7445 127.642 33.7445H125.691C125.575 33.7445 125.429 33.8028 125.4 33.9774C125.4 34.0066 125.371 34.0648 125.371 34.0648C125.021 35.5788 124.264 36.8016 123.129 37.7333C121.994 38.665 120.654 39.1017 119.169 39.1017C117.655 39.1017 116.462 38.6359 115.559 37.7333C114.656 36.8307 114.22 35.637 114.22 34.1521C114.22 33.366 114.307 32.3761 114.453 31.2115C114.569 30.2216 114.686 29.2899 114.715 28.9696C115.006 26.6986 115.268 25.0099 115.501 23.8745C115.85 22.3605 116.607 21.1376 117.743 20.2059C118.878 19.2742 120.217 18.8375 121.702 18.8375C123.187 18.8375 124.41 19.2742 125.313 20.1768C126.215 21.0794 126.652 22.2731 126.652 23.758V23.7871C126.652 23.9909 126.827 24.1656 127.03 24.1656H128.865C129.01 24.1656 129.156 24.0491 129.156 23.8745C129.156 23.6706 129.156 23.496 129.156 23.3213C129.156 21.2832 128.515 19.6527 127.234 18.4299C125.924 17.2362 124.206 16.6248 121.994 16.6248Z" fill="#3F3F46"/>
<path d="M106.184 18.4881C104.903 17.2653 103.156 16.6248 100.972 16.6248C98.7884 16.6248 96.8959 17.2362 95.2945 18.4881C93.6932 19.7401 92.6451 21.3705 92.121 23.4086C91.6843 25.0682 91.4804 26.5531 91.1311 28.9696C90.8108 31.3571 90.6943 32.842 90.6943 34.5306C90.7235 36.5978 91.3931 38.2283 92.6451 39.4802C93.9261 40.7031 95.673 41.3436 97.8858 41.3436C100.04 41.3436 101.933 40.7322 103.534 39.4802C105.136 38.2574 106.184 36.5978 106.708 34.5306C106.737 34.3559 106.795 34.1813 106.824 34.0066C106.853 33.861 106.766 33.7445 106.62 33.7445H104.67C104.553 33.7445 104.408 33.8028 104.379 33.9774C104.379 34.0066 104.349 34.0648 104.349 34.0648C104 35.5788 103.243 36.8016 102.108 37.7333C100.972 38.665 99.6327 39.1017 98.1478 39.1017C96.6339 39.1017 95.4401 38.6359 94.5376 37.7333C93.635 36.8307 93.1982 35.637 93.1982 34.1521C93.1982 33.4534 93.2565 32.5799 93.3729 31.59L107.523 27.1936C107.814 27.1062 107.931 26.9607 107.989 26.6113C108.076 25.8834 108.134 24.6315 108.134 23.3504C108.105 21.5161 107.465 19.711 106.184 18.4881ZM105.63 25.0973C105.63 25.2429 105.543 25.3593 105.398 25.3884L93.6641 29.0279C93.6641 28.9987 93.6641 28.9987 93.6641 28.9696C93.9552 26.6986 94.2173 25.0099 94.4502 23.8745C94.7996 22.3605 95.5566 21.1376 96.6921 20.2059C97.8276 19.2742 99.1669 18.8375 100.652 18.8375C102.166 18.8375 103.359 19.3034 104.262 20.1768C105.689 21.6617 105.718 23.1757 105.63 25.0973Z" fill="#3F3F46"/>
<path d="M85.3075 38.4031C85.5987 38.2576 85.9189 38.4614 85.8607 38.7816L85.6569 40.3539C85.6278 40.5577 85.4822 40.7324 85.3075 40.8197C83.91 41.3438 81.9593 41.5767 80.387 40.8779C78.5819 40.0627 78.116 38.2867 78.3781 36.0739L80.4453 19.2162L80.7364 16.7996L81.4352 11.4424C81.4643 11.1221 81.6681 10.9766 81.9884 10.9766H83.5024C83.8517 10.9766 83.9391 11.1804 83.8809 11.4424L82.9783 19.0706H87.8988C88.1899 19.0706 88.3064 19.2453 88.3064 19.5364L88.1608 20.6428C88.1317 20.8175 88.1026 20.9049 88.0152 21.0213C87.9279 21.1087 87.7532 21.1378 87.6367 21.1378H82.7454L81.0276 34.9675C80.8529 36.4524 80.6491 37.7917 81.4061 38.5196C82.396 39.3348 84.3176 38.869 85.3075 38.4031Z" fill="#3F3F46"/>
</svg>
