<svg width="180" height="39" viewBox="0 0 180 39" fill="none" xmlns="http://www.w3.org/2000/svg">
<path d="M57.2959 6.03442C55.2121 6.03442 53.2039 6.2957 52.3861 6.51658C51.1957 6.85058 50.8988 7.37044 50.6748 8.44787L45.9512 30.1986C45.8756 30.643 45.8027 31.0147 45.8027 31.3864C45.8027 32.4639 46.5099 33.1669 47.6625 33.1669C48.9284 33.1669 49.4493 32.3507 49.7085 31.0874L51.0473 24.8895C51.9758 24.9999 53.2039 25.1131 54.953 25.1131C62.6538 25.1131 67.4502 20.9569 67.4502 14.6835C67.4502 9.18861 63.6174 6.03442 57.2959 6.03442ZM54.7667 21.5495C53.5764 21.5495 52.6452 21.5118 51.7922 21.4013L54.2836 9.85662C55.0636 9.74618 56.2189 9.59534 57.4092 9.59534C61.5012 9.59534 63.585 11.5266 63.585 14.7185C63.5823 18.802 60.6051 21.5495 54.7667 21.5495Z" fill="#3F3F46"/>
<path d="M178.475 26.0018C177.844 26.0018 177.433 26.3735 176.653 27.2274C175.277 28.6388 174.421 29.4172 173.344 29.4172C172.378 29.4172 171.857 28.6388 171.857 27.3755C171.857 26.6698 172.005 25.8159 172.192 24.8893L173.568 18.4301H177.698C178.999 18.4301 179.782 17.6867 179.782 16.3507C179.782 15.6072 179.299 15.0524 178.184 15.0524H174.31L174.98 12.0463C175.055 11.6019 175.128 11.1925 175.128 10.8208C175.128 9.78103 174.421 9.0376 173.269 9.0376C172.04 9.0376 171.484 9.85375 171.223 11.117L170.367 15.0524H168.618C167.279 15.0524 166.499 15.7958 166.499 17.1318C166.499 17.8752 167.02 18.4301 168.135 18.4301H169.66L168.283 24.8139C168.135 25.5196 167.948 26.6698 167.948 27.8577C167.948 30.8637 169.511 33.0536 172.858 33.0536C174.794 33.0536 176.502 32.0893 177.806 30.9364C179.072 29.824 180 28.4503 180 27.5587C180 26.7075 179.331 26.0018 178.475 26.0018Z" fill="#3F3F46"/>
<path d="M92.9272 8.22407C92.9272 7.14664 92.1822 6.44092 91.0297 6.44092C89.8015 6.44092 89.2455 7.25707 88.9837 8.52036L84.3357 30.0852C84.225 30.5296 84.1494 30.9014 84.1494 31.2731C84.1494 32.3505 84.8944 33.0535 86.0092 33.0535C87.2751 33.0535 87.8311 32.2374 88.0929 30.9741L92.7409 9.41194C92.8165 8.96481 92.9272 8.59579 92.9272 8.22407Z" fill="#3F3F46"/>
<path d="M159.319 14.6806C153.367 14.6806 149.313 20.5822 149.313 26.1876C149.313 26.2926 149.315 26.3977 149.318 26.5001C148.384 27.9142 147.191 29.3795 146.373 29.3795C145.779 29.3795 145.555 28.8219 145.555 27.9681C145.555 26.9283 145.852 25.1829 146.187 23.661L149.275 9.40657C149.351 8.96213 149.423 8.59041 149.423 8.2187C149.423 7.14127 148.716 6.43555 147.564 6.43555C146.298 6.43555 145.779 7.2517 145.518 8.51499L143.844 16.2348C142.951 15.3082 141.647 14.6752 139.677 14.6752C135.725 14.6752 131.749 17.7109 130.2 22.3681C128.494 26.7694 126.969 29.3741 125.765 29.3741C125.32 29.3741 125.058 29.0024 125.058 28.3721C125.058 26.5162 126.1 21.9883 126.545 19.7984C126.694 18.9823 126.769 18.6483 126.769 18.1661C126.769 16.5338 124.054 14.6025 120.52 14.6025C116.434 14.6025 112.733 17.1856 110.879 21.0213C108.123 25.8805 105.594 29.3741 104.342 29.3741C103.783 29.3741 103.597 28.6684 103.448 28.0004L102.522 22.8853L108.212 18.2469C108.733 17.8025 109.403 17.1695 109.403 16.3533C109.403 15.3513 108.733 14.6833 107.729 14.6833C106.984 14.6833 106.352 15.1277 105.721 15.6476L97.1671 22.6994L100.031 9.41196C100.107 8.96752 100.217 8.5958 100.217 8.22409C100.217 7.14665 99.4722 6.44093 98.3197 6.44093C97.0915 6.44093 96.5355 7.25709 96.2737 8.52038L91.6257 30.0852C91.515 30.5297 91.4395 30.9014 91.4395 31.2731C91.4395 32.3505 92.1844 33.0535 93.2992 33.0535C94.5651 33.0535 95.1211 32.2374 95.383 30.9741L95.9795 28.1916L99.4749 25.3714L100.331 29.6758C100.665 31.3835 101.559 33.0535 103.864 33.0535C106.158 33.0535 107.964 30.9633 109.772 28.1378C110.32 31.098 112.431 33.0535 115.36 33.0535C118.299 33.0535 120.307 31.3081 121.608 28.9701V29.0455C121.608 31.4589 122.836 33.0535 124.993 33.0535C126.945 33.0535 128.564 31.8791 130.011 29.3849C130.831 31.5586 132.667 33.0535 135.22 33.0535C138.233 33.0535 140.389 31.2354 141.766 28.7115V28.9351C141.766 31.6071 143.105 33.0562 145.299 33.0562C147.237 33.0562 148.884 31.933 150.29 30.1068C151.359 31.933 153.275 33.0562 155.864 33.0562C161.815 33.0562 165.87 27.1546 165.87 21.5115C165.867 17.5385 163.448 14.6806 159.319 14.6806ZM122.237 22.2173C121.157 26.8556 118.852 29.4926 116.248 29.4926C114.499 29.4926 113.532 28.1566 113.532 26.1526C113.532 22.2173 116.396 17.9856 120.226 17.9856C121.379 17.9856 122.272 18.3196 123.052 18.8018L122.237 22.2173ZM142.953 20.2509C141.763 25.7081 139.048 29.4926 136.073 29.4926C134.438 29.4926 133.468 28.2293 133.468 26.1526C133.468 22.1822 136.222 18.0611 139.903 18.0611C141.318 18.0611 142.395 18.5432 143.177 19.1735L142.953 20.2509ZM156.306 29.4926C154.15 29.4926 153.256 27.933 153.256 25.9667C153.256 22.3654 155.748 18.2469 158.873 18.2469C161.03 18.2469 161.923 19.8065 161.923 21.7728C161.923 25.4092 159.432 29.4926 156.306 29.4926Z" fill="#3F3F46"/>
<path d="M76.711 14.6807C70.7593 14.6807 66.7051 20.5823 66.7051 26.1877C66.7051 30.1957 69.1235 33.0536 73.2506 33.0536C79.2023 33.0536 83.2565 27.152 83.2565 21.5089C83.2565 17.5386 80.838 14.6807 76.711 14.6807ZM73.6987 29.4927C71.542 29.4927 70.6486 27.9331 70.6486 25.9668C70.6486 22.3655 73.1399 18.247 76.2656 18.247C78.4223 18.247 79.3157 19.8066 79.3157 21.7729C79.313 25.4092 76.8216 29.4927 73.6987 29.4927Z" fill="#3F3F46"/>
<path d="M19.9148 8.33456C23.7057 8.33456 26.7788 6.55095 26.7788 4.35075C26.7788 2.15056 23.7057 0.366943 19.9148 0.366943C16.1239 0.366943 13.0508 2.15056 13.0508 4.35075C13.0508 6.55095 16.1239 8.33456 19.9148 8.33456Z" fill="#3F3F46"/>
<path d="M19.9148 38.3519C23.7057 38.3519 26.7788 36.5683 26.7788 34.3681C26.7788 32.1679 23.7057 30.3843 19.9148 30.3843C16.1239 30.3843 13.0508 32.1679 13.0508 34.3681C13.0508 36.5683 16.1239 38.3519 19.9148 38.3519Z" fill="#3F3F46"/>
<path d="M10.351 13.8493C12.2465 10.5732 12.2342 7.02495 10.3235 5.9241C8.4129 4.82326 5.32747 6.58666 3.43202 9.86276C1.53657 13.1389 1.54887 16.6871 3.4595 17.7879C5.37012 18.8888 8.45556 17.1254 10.351 13.8493Z" fill="#3F3F46"/>
<path d="M36.3981 28.8559C38.2935 25.5797 38.2823 22.0321 36.3729 20.932C34.4636 19.8319 31.3792 21.5959 29.4838 24.872C27.5883 28.1481 27.5996 31.6958 29.5089 32.7959C31.4183 33.896 34.5026 32.132 36.3981 28.8559Z" fill="#3F3F46"/>
<path d="M10.3245 32.7951C12.2351 31.6943 12.2474 28.1461 10.352 24.87C8.45653 21.5939 5.3711 19.8305 3.46047 20.9313C1.54985 22.0322 1.53754 25.5804 3.43299 28.8565C5.32844 32.1326 8.41388 33.896 10.3245 32.7951Z" fill="#3F3F46"/>
<path d="M36.3739 17.7887C38.2833 16.6886 38.2945 13.141 36.3991 9.86485C34.5036 6.58874 31.4192 4.82474 29.5099 5.92484C27.6006 7.02494 27.5893 10.5726 29.4848 13.8487C31.3802 17.1248 34.4646 18.8888 36.3739 17.7887Z" fill="#3F3F46"/>
</svg>
