<svg width="180" height="35" viewBox="0 0 180 35" fill="none" xmlns="http://www.w3.org/2000/svg">
<path d="M60.9777 19.3049H67.7619C68.7157 19.3049 69.4887 20.0861 69.4887 21.04C69.4887 22.0021 68.7157 22.7751 67.7619 22.7751H59.5798C59.4482 22.7751 59.3249 22.8244 59.2344 22.9067L56.7675 25.0365C56.3892 25.3654 56.6195 25.9821 57.1128 25.9821H67.3507C67.3507 25.9821 67.3589 25.9821 67.3589 25.9739C67.3589 25.9657 67.3671 25.9657 67.3671 25.9657C67.4987 25.9739 67.6221 25.9821 67.7536 25.9821C70.4673 25.9821 72.6711 23.7701 72.6711 21.04C72.6711 18.4497 70.6893 16.3199 68.1566 16.1143C68.1566 16.1143 68.1483 16.1143 68.1483 16.1061C68.1483 16.0979 68.1483 16.0979 68.1401 16.0979H60.8379C59.8841 16.0979 59.1111 15.3167 59.1111 14.3628C59.1111 13.4007 59.8841 12.6277 60.8379 12.6277H69.0036C69.1351 12.6277 69.2667 12.5784 69.3654 12.4879L71.6596 10.3581C72.0215 10.0209 71.783 9.42065 71.2978 9.42065H60.9777C60.9366 9.42065 60.8873 9.42065 60.8462 9.42065C58.1325 9.42065 55.9287 11.6327 55.9287 14.3628C55.9287 17.0929 58.1325 19.3049 60.8462 19.3049C60.8873 19.3049 60.9284 19.3049 60.9777 19.3049Z" fill="#3F3F46"/>
<path d="M100.465 9.41252C100.169 9.41252 99.9307 9.65099 99.9307 9.95525V25.4477C99.9307 25.7437 100.169 25.9904 100.465 25.9904H112.882C113.03 25.9904 113.17 25.9247 113.277 25.8178L114.831 24.1484C115.152 23.8031 114.913 23.2357 114.436 23.2357H103.598C103.302 23.2357 103.064 22.9972 103.064 22.6929V9.94703C103.064 9.65099 102.825 9.4043 102.529 9.4043H100.465V9.41252Z" fill="#3F3F46"/>
<path fill-rule="evenodd" clip-rule="evenodd" d="M80.5822 9.41235C80.5822 9.42058 80.5822 9.42058 80.5822 9.41235C78.9951 9.48636 77.7205 10.761 77.6465 12.348V22.7668C77.6465 22.8079 77.6465 22.8572 77.6465 22.8984C77.6465 24.5512 78.9457 25.8998 80.5822 25.9656H91.8479C93.4761 25.8916 94.7836 24.543 94.7836 22.8984C94.7836 22.8572 94.7836 22.8079 94.7836 22.7668V12.3563C94.7178 10.7692 93.4432 9.48636 91.8561 9.42058H80.5822V9.41235ZM82.6873 12.3563C82.6791 12.3563 82.6791 12.3563 82.6873 12.3563C81.6923 12.3974 80.8946 13.2032 80.8535 14.2065V20.7603C80.8535 20.785 80.8535 20.8179 80.8535 20.8426C80.8535 21.8787 81.6676 22.7339 82.6873 22.775H89.751C90.7707 22.7339 91.5848 21.8787 91.5848 20.8426C91.5848 20.8179 91.5848 20.785 91.5848 20.7603V14.2065C91.5437 13.2032 90.746 12.4056 89.751 12.3563H82.6873Z" fill="#3F3F46"/>
<path fill-rule="evenodd" clip-rule="evenodd" d="M132.881 25.4477C132.881 25.7437 133.119 25.9904 133.415 25.9904H135.521C135.817 25.9904 136.055 25.752 136.055 25.4477V12.6278C136.055 12.5867 136.055 12.5373 136.055 12.4962C136.055 10.8433 134.764 9.49474 133.152 9.42896H122.339C122.298 9.42896 122.248 9.42896 122.207 9.42896C120.53 9.42896 119.173 10.8022 119.173 12.5044C119.173 12.5455 119.173 12.5949 119.173 12.636V25.4559C119.173 25.752 119.411 25.9987 119.707 25.9987H121.812C122.109 25.9987 122.347 25.7602 122.347 25.4559V20.1191C122.347 19.823 122.585 19.5764 122.882 19.5764H132.371C132.667 19.5764 132.906 19.8148 132.906 20.1191V25.4477H132.881ZM122.331 16.6242V13.9599C122.331 12.9238 123.161 12.085 124.181 12.085H131.039C132.059 12.085 132.889 12.9238 132.889 13.9599V16.6242C132.889 16.9203 132.651 17.167 132.355 17.167H122.865C122.569 17.167 122.331 16.9285 122.331 16.6242Z" fill="#3F3F46"/>
<path fill-rule="evenodd" clip-rule="evenodd" d="M177.327 25.9904C177.031 25.9904 176.793 25.7519 176.793 25.4476V20.1108C176.793 19.8147 176.554 19.5681 176.258 19.5681H166.662C166.366 19.5681 166.127 19.8065 166.127 20.1108V25.4476C166.127 25.7437 165.889 25.9904 165.593 25.9904H163.471C163.175 25.9904 162.937 25.7519 162.937 25.4476V12.6277C162.937 12.5866 162.937 12.5372 162.937 12.4961C162.937 10.8021 164.31 9.42065 166.004 9.42065C166.045 9.42065 166.094 9.42065 166.135 9.42065H177.064C178.692 9.49466 180 10.8433 180 12.4879C180 12.529 180 12.5784 180 12.6195V25.4394C180 25.7354 179.761 25.9821 179.465 25.9821H177.327V25.9904ZM166.127 13.9598V16.6242C166.127 16.9202 166.366 17.1669 166.662 17.1669H176.258C176.554 17.1669 176.793 16.9284 176.793 16.6242V13.9598C176.793 12.9237 175.954 12.085 174.926 12.085H167.994C166.958 12.085 166.127 12.9237 166.127 13.9598Z" fill="#3F3F46"/>
<path d="M143.982 9.41235C144.139 9.41235 144.287 9.47814 144.385 9.60149L153.826 20.859C154.146 21.2373 154.763 21.007 154.763 20.5054V9.95508C154.763 9.65905 155.001 9.41235 155.297 9.41235H157.403C157.699 9.41235 157.937 9.65083 157.937 9.95508V25.4475C157.937 25.7436 157.699 25.9903 157.403 25.9903H154.788C154.779 25.9903 154.771 25.9821 154.771 25.9738C154.771 25.9656 154.771 25.9656 154.763 25.9574L145.158 14.7821C144.838 14.4038 144.221 14.6423 144.221 15.1357V25.4558C144.221 25.7518 143.982 25.9985 143.686 25.9985H141.565C141.269 25.9985 141.03 25.76 141.03 25.4558V9.95508C141.03 9.65905 141.269 9.41235 141.565 9.41235H143.982Z" fill="#3F3F46"/>
<path d="M6.97614 26.5576C7.23928 26.2945 7.59288 26.1465 7.96292 26.1465H42.2124C42.8374 26.1465 43.1499 26.903 42.7058 27.3388L35.9382 34.1065C35.675 34.3697 35.3214 34.5177 34.9514 34.5177H0.701859C0.0768975 34.5177 -0.235583 33.7611 0.208468 33.3253L6.97614 26.5576Z" fill="#3F3F46"/>
<path d="M6.97614 1.29617C7.23928 1.03303 7.59288 0.88501 7.96292 0.88501H42.2124C42.8374 0.88501 43.1499 1.64154 42.7058 2.07737L35.9382 8.83682C35.675 9.09996 35.3214 9.24798 34.9514 9.24798H0.701859C0.0768975 9.24798 -0.235583 8.49145 0.208468 8.05562L6.97614 1.29617Z" fill="#3F3F46"/>
<path d="M35.9382 13.8448C35.675 13.5816 35.3214 13.4336 34.9514 13.4336H0.701859C0.0768975 13.4336 -0.235583 14.1901 0.208468 14.626L6.97614 21.3854C7.23928 21.6485 7.59288 21.7966 7.96292 21.7966H42.2124C42.8374 21.7966 43.1499 21.04 42.7058 20.6042L35.9382 13.8448Z" fill="#3F3F46"/>
</svg>
