<svg width="180" height="46" viewBox="0 0 180 46" fill="none" xmlns="http://www.w3.org/2000/svg">
<path d="M138.024 6.87439H142.02V38.5544H138.024V6.87439ZM130.068 6.87439H134.028V38.5544H130.068V6.87439ZM160.848 28.7264C160.848 34.2704 157.284 35.9624 153.576 35.9624C150.732 35.9624 149.04 34.4864 149.04 32.2544C149.04 29.0144 153.648 27.9344 160.848 27.2504V28.7264ZM164.448 29.7344L164.484 24.2624C164.556 17.6024 161.748 14.5784 155.16 14.5784C150.624 14.5784 146.052 17.4224 145.728 22.4984H149.832C150.012 19.5824 151.884 17.8184 155.196 17.8184C158.184 17.8184 160.524 19.2224 160.524 23.5424V24.1184C150.912 25.1624 144.612 26.8184 144.612 32.3624C144.612 36.6824 148.284 39.1304 152.712 39.1304C156.888 39.1304 159.3 37.7984 160.74 35.3504C160.776 36.4304 160.884 37.5104 161.064 38.5544H165.06C164.556 36.3224 164.412 33.6584 164.448 29.6984V29.7344ZM178.812 14.9384C175.716 15.0464 173.376 16.4864 172.188 19.1504V15.0464H168.3V38.5544H172.26V26.2064C172.26 20.9864 174.096 19.0064 177.768 19.0064C178.524 19.0424 179.244 19.0784 180 19.2224V14.9744C179.604 14.9384 179.208 14.9384 178.812 14.9384ZM100.044 9.17839H96.048V15.0464H92.34V18.2504H96.048V32.6504C96.048 37.5464 97.092 38.5544 101.592 38.5544H104.508V35.2064H102.492C100.224 35.2064 100.044 34.5944 100.044 32.1824V18.2504H104.508V15.0464H100.044V9.17839ZM80.856 20.4104L77.184 19.5824C74.196 18.8984 72 17.5304 72 14.7224C72 11.1584 76.284 10.0784 78.732 10.0784C81.9 10.0784 85.572 11.3384 86.616 14.9744H90.936C89.676 8.89039 84.636 6.33439 78.948 6.33439C73.836 6.33439 67.5 8.89039 67.5 14.9744C67.5 20.2304 71.82 22.6784 76.176 23.6144L80.136 24.4424C84.132 25.3784 86.94 26.6744 86.94 30.0584C86.94 33.1904 84.276 35.3864 79.56 35.3864C74.628 35.3864 71.64 33.1184 70.812 28.7264H66.456C67.284 35.0264 72 39.1304 79.452 39.1304C85.752 39.1304 91.512 35.8184 91.512 29.6264C91.512 23.2544 85.68 21.4184 80.856 20.3744V20.4104ZM109.332 24.7304C109.692 19.9784 112.932 18.0704 116.424 18.0704C120.672 18.0704 123.048 21.3824 123.192 24.7304H109.332ZM116.424 14.6504C110.016 14.6504 105.012 19.4024 105.012 26.8544C105.012 33.8024 109.116 39.1304 116.532 39.1304C122.256 39.1304 126.036 35.7824 127.044 31.7504H123.012C122.004 34.0544 120.06 35.6384 116.568 35.6384C113.076 35.6384 109.44 33.1904 109.332 28.1504H127.404C127.908 20.6624 123.66 14.6864 116.46 14.6864L116.424 14.6504ZM53.172 11.4824L11.196 32.8664L7.524 34.7024L0 38.5544V43.1624L7.488 39.3464L13.896 36.0704L44.856 20.3024C46.188 30.3824 39.096 39.6344 29.016 40.9664C28.224 41.0744 27.396 41.1464 26.568 41.1464C23.436 41.1464 20.34 40.3184 17.568 38.7704L17.352 38.9144L13.392 40.8944C23.436 48.2024 37.512 45.9704 44.82 35.8904C47.592 32.0744 49.104 27.4664 49.104 22.7144C49.104 22.1384 49.104 21.5624 49.032 20.9864C48.924 19.3304 49.788 17.7824 51.264 17.0264L53.172 16.0184V11.4824ZM45.684 6.11839L39.276 9.35839L8.352 25.1264C7.02 15.0464 14.148 5.79439 24.228 4.46239C28.152 3.95839 32.148 4.71439 35.604 6.65839L39.276 4.78639L39.816 4.49839C29.772 -2.80961 15.696 -0.541607 8.388 9.50239C5.58 13.3544 4.104 17.9624 4.104 22.7144C4.104 23.2904 4.104 23.8664 4.14 24.4424C4.284 26.0624 3.42 27.6464 1.944 28.4024L0 29.3744V33.9824L5.688 31.0664L7.524 30.1304L9.36 29.2304L41.94 12.5984L45.612 10.7264L53.172 6.87439V2.26639L45.684 6.11839Z" fill="#3F3F46"/>
</svg>
