<svg width="180" height="55" viewBox="0 0 180 55" fill="none" xmlns="http://www.w3.org/2000/svg">
<path d="M72.4759 22.0732H69.4688V41.7075H72.4759V22.0732Z" fill="#3F3F46"/>
<path d="M85.9462 13.7563H61.4355V16.7635H85.9462V13.7563Z" fill="#3F3F46"/>
<path d="M77.9075 22.0732H74.9004V41.7075H77.9075V22.0732Z" fill="#3F3F46"/>
<path d="M160.982 41.7279H164.017V29.9026L160.982 26.5298V41.7279Z" fill="#3F3F46"/>
<path d="M176.959 13.7564V35.6799L155.496 11.8262V41.728H158.524V19.7977L180 43.6582V13.7564H176.959Z" fill="#3F3F46"/>
<path d="M135.848 13.7427C128.134 13.7427 121.862 20.0143 121.862 27.7285C121.862 35.4426 128.134 41.7142 135.848 41.7142C143.562 41.7142 149.834 35.4426 149.834 27.7285C149.834 20.021 143.562 13.7427 135.848 13.7427ZM135.848 38.7003C129.8 38.7003 124.876 33.7833 124.876 27.7285C124.876 21.6736 129.793 16.7566 135.848 16.7566C141.896 16.7566 146.82 21.6736 146.82 27.7285C146.82 33.7765 141.896 38.7003 135.848 38.7003Z" fill="#3F3F46"/>
<path d="M135.848 25.717C134.738 25.717 133.837 26.6178 133.837 27.7286C133.837 28.8393 134.738 29.7401 135.848 29.7401C136.959 29.7401 137.86 28.8393 137.86 27.7286C137.86 26.6178 136.959 25.717 135.848 25.717Z" fill="#3F3F46"/>
<path d="M116.6 22.3375C116.6 17.6101 112.78 13.7632 108.086 13.7632H92.0889V41.7347H95.0757V16.7974H108.086C111.1 16.7974 113.552 19.283 113.552 22.3375C113.552 25.3785 111.134 27.8505 108.147 27.8844L97.5342 27.8776V41.7347H100.521V30.9118H107.517L113.233 41.728H116.708L110.741 30.4852C114.188 29.3406 116.6 26.0084 116.6 22.3375Z" fill="#3F3F46"/>
<path d="M40.7585 8.21621L0 0.71875L21.4494 54.6842L51.3308 18.2738L40.7585 8.21621ZM40.1084 11.5213L46.3461 17.4475L29.2922 20.5359L40.1084 11.5213ZM25.5875 19.9196L7.6126 5.01269L36.9861 10.4174L25.5875 19.9196ZM24.3007 22.5609L21.3749 46.7871L5.57399 7.01743L24.3007 22.5609ZM27.0098 23.841L45.8923 20.4207L24.2398 46.8075L27.0098 23.841Z" fill="#3F3F46"/>
</svg>
