<svg width="145" height="41" viewBox="0 0 145 41" fill="none" xmlns="http://www.w3.org/2000/svg">
<path d="M40.6219 0H47.5048L33.1795 14.481C27.9928 19.7254 19.5927 19.7254 14.406 14.481L0.0865401 0H6.96936L17.8503 11.0021C21.0812 14.2849 26.3659 14.3253 29.6486 11.0944C29.6775 11.0656 29.7121 11.031 29.741 11.0021L40.6219 0ZM6.88282 40.27H0L14.4118 25.6966C19.5984 20.4523 27.9986 20.4523 33.1852 25.6966L47.5913 40.27H40.7085L29.741 29.1813C26.5101 25.8986 21.2254 25.8582 17.9426 29.089C17.9138 29.1179 17.8792 29.1525 17.8503 29.1813L6.88282 40.27Z" fill="#3F3F46"/>
<path d="M131.35 0H131.356C133.116 0.034616 134.766 0.380776 136.301 1.03848C137.864 1.6558 139.237 2.51543 140.408 3.61161C141.591 4.71355 142.514 6.01165 143.178 7.50014C143.847 8.96556 144.181 10.5175 144.181 12.156C144.181 13.8291 143.83 15.4214 143.12 16.9215C142.456 18.3811 141.51 19.6735 140.299 20.8042C139.122 21.9004 137.726 22.7774 136.133 23.4293H136.127C134.552 24.0524 132.862 24.3639 131.062 24.3639H116.039V40.1315H110.754V0L131.35 0ZM131.062 19.5004C132.124 19.5004 133.127 19.31 134.079 18.9292C135.043 18.5484 135.879 18.0234 136.595 17.3542C137.31 16.6907 137.881 15.9003 138.285 15.0118C138.695 14.1291 138.897 13.1772 138.897 12.156C138.897 11.1694 138.695 10.2348 138.285 9.3521C137.881 8.46939 137.304 7.67322 136.595 7.00975C135.879 6.34051 135.043 5.82126 134.079 5.43472C133.127 5.05394 132.124 4.86355 131.062 4.86355H116.039V19.5004H131.062Z" fill="#3F3F46"/>
<path d="M72.3593 24.4505C75.0074 24.4505 77.5171 25.5697 79.1787 27.4967L90.0943 40.1373H96.8906L81.9595 22.6158C80.2979 20.6658 77.7767 19.5292 75.1055 19.5292H64.7611V4.92702H79.7845C80.846 4.92702 81.8499 5.1174 82.8018 5.49818C83.7653 5.88473 84.6019 6.40974 85.3173 7.07321L85.3288 7.08475C86.0384 7.71361 86.5981 8.46939 87.0077 9.36364C87.4173 10.2463 87.6192 11.1983 87.6192 12.2252C87.6192 13.2464 87.4115 14.1983 87.0077 15.0811C86.7596 15.5945 86.4596 16.0792 86.1019 16.5234L89.5404 20.36C89.5808 20.3138 89.627 20.2677 89.6673 20.2215C90.6827 19.1254 91.4674 17.908 92.0155 16.558C92.6039 15.1964 92.8982 13.7483 92.8982 12.2195C92.8982 10.581 92.5636 9.02325 91.8943 7.55784C91.2308 6.06358 90.3077 4.76548 89.125 3.66353C87.9481 2.56736 86.5807 1.69619 85.023 1.03848C83.4826 0.380776 81.8326 0.034616 80.0672 0H62.1072C61.3803 0 60.7456 0.271159 60.2264 0.761553C59.7245 1.22887 59.4648 1.8058 59.4648 2.46351V40.1315H64.7496V24.4505H72.3593Z" fill="#3F3F46"/>
</svg>
