<svg width="28" height="31" viewBox="0 0 28 31" fill="none" xmlns="http://www.w3.org/2000/svg">
<path d="M27.3332 31L20.3332 24.3333L21.1732 27H3.99984C3.11578 27 2.26794 26.6488 1.64281 26.0237C1.01769 25.3985 0.666504 24.5507 0.666504 23.6666V3.66665C0.666504 2.78259 1.01769 1.93475 1.64281 1.30962C2.26794 0.684502 3.11578 0.333313 3.99984 0.333313H23.9998C24.8839 0.333313 25.7317 0.684502 26.3569 1.30962C26.982 1.93475 27.3332 2.78259 27.3332 3.66665V31ZM13.9998 8.06665C10.4265 8.06665 7.91984 9.59998 7.91984 9.59998C9.29317 8.37331 11.6932 7.66665 11.6932 7.66665L11.4665 7.43998C9.21317 7.47998 7.17317 9.03998 7.17317 9.03998C4.87984 13.8266 5.0265 17.96 5.0265 17.96C6.89317 20.3733 9.6665 20.2 9.6665 20.2L10.6132 19C8.9465 18.64 7.89317 17.16 7.89317 17.16C7.89317 17.16 10.3998 18.8666 13.9998 18.8666C17.5998 18.8666 20.1065 17.16 20.1065 17.16C20.1065 17.16 19.0532 18.64 17.3865 19L18.3332 20.2C18.3332 20.2 21.1065 20.3733 22.9732 17.96C22.9732 17.96 23.1198 13.8266 20.8265 9.03998C20.8265 9.03998 18.7865 7.47998 16.5332 7.43998L16.3065 7.66665C16.3065 7.66665 18.7065 8.37331 20.0798 9.59998C20.0798 9.59998 17.5732 8.06665 13.9998 8.06665ZM11.2398 13.12C12.1065 13.12 12.8132 13.88 12.7998 14.8133C12.7998 15.7333 12.1065 16.5066 11.2398 16.5066C10.3865 16.5066 9.69317 15.7333 9.69317 14.8133C9.69317 13.88 10.3732 13.12 11.2398 13.12ZM16.7998 13.12C17.6665 13.12 18.3598 13.88 18.3598 14.8133C18.3598 15.7333 17.6665 16.5066 16.7998 16.5066C15.9465 16.5066 15.2532 15.7333 15.2532 14.8133C15.2532 13.88 15.9332 13.12 16.7998 13.12Z" fill="#A1A1AA"/>
</svg>
