<svg version="1.2" xmlns="http://www.w3.org/2000/svg" viewBox="0 0 540 208" width="540" height="208">
	<title>meter-svg</title>
	<defs>
		<linearGradient id="g1" x1="270" y1="0" x2="270" y2="208" gradientUnits="userSpaceOnUse">
			<stop offset=".4" stop-color="#000000"/>
			<stop offset="1" stop-color="#000000" stop-opacity="0"/>
		</linearGradient>
	</defs>
	<style>
		.s0 { fill: #000000;stroke: #71717a;stroke-width: 2 } 
		.s1 { fill: url(#g1) } 
		.s2 { fill: #27272a } 
		.s3 { fill: #71717a } 
		.s4 { fill: #ffffff } 
	</style>
	<path id="Layer" class="s0" d="m539 200c0 3.9-3.1 7-7 7h-524c-3.9 0-7-3.1-7-7v-192c0-3.9 3.1-7 7-7h524c3.9 0 7 3.1 7 7z" />
	<path id="Layer" class="s1" d="m540 200c0 4.4-3.6 8-8 8h-524c-4.4 0-8-3.6-8-8v-192c0-4.4 3.6-8 8-8h524c4.4 0 8 3.6 8 8z" />
	<path id="Layer" class="s2" d="m240.2 137.9l-6.5 17.6l-6.4 17.7l-79.7-50.4z" />
	<path id="Layer" class="s3" d="m81.1 208q-1.1-10.1-1.1-20.3c0-103.5 84.8-187.7 189-187.7c104.2 0 189 84.2 189 187.7q0 10.2-1.1 20.3h-26.7q1.3-10.1 1.4-20.3c0-89-73-161.4-162.6-161.4c-89.6 0-162.6 72.4-162.6 161.4q0.1 10.2 1.4 20.3z" />
	<path id="Layer" class="s2" d="m322.9 205.8h-107.8c-3-7.8-4.2-16.1-3.6-24.4c0.7-8.3 3.1-16.3 7.3-23.6c4.1-7.2 9.9-13.5 16.7-18.3c6.9-4.8 14.8-8.1 23.1-9.6c8.3-1.5 16.9-1.2 25 1c8.2 2.1 15.8 5.9 22.3 11.2c6.5 5.4 11.7 12 15.3 19.5c3.6 7.6 5.4 15.8 5.4 24.1c0.1 6.8-1.2 13.7-3.7 20.1z" />
	<g id="Layer">
		<path id="Layer" fill-rule="evenodd" class="s4" d="m258 160l12.6 9.5l-2.9 7.5l-7.8-1.2zm10.6 17.5l4.9-6.3l14.5 6.3l-14.5 6.2zm-0.9 0.5l2.9 7.5l-12.6 9.5l1.9-15.8z" />
		<path id="Layer" fill-rule="evenodd" class="s4" d="m258 160l9.7 17l-7.8-1.2zm15.5 11.2l14.5 6.3h-19.4zm-3 14.2l-12.6 9.5l9.7-17z" />
	</g>
</svg>