<svg width="1440" height="639" viewBox="0 0 1440 639" fill="none" xmlns="http://www.w3.org/2000/svg">
<path d="M424.686 364.707L0 364.993V639H1440V367.177H961.429C960.927 354.137 957.236 341.419 950.677 330.136C944.118 318.853 934.893 309.349 923.808 302.456C912.723 295.564 900.117 291.492 887.094 290.597C874.07 289.703 861.025 292.014 849.102 297.327C846.554 287.103 840.66 278.023 832.356 271.532C824.053 265.042 813.817 261.512 803.276 261.506C803.276 260.647 803.185 259.803 803.08 258.975C803.606 254.958 803.267 250.874 802.086 246.999C800.905 243.123 798.91 239.544 796.233 236.502C793.556 233.46 790.26 231.024 786.565 229.359C782.871 227.693 778.863 226.836 774.809 226.844C771.315 226.849 767.852 227.498 764.592 228.757C763.801 223.468 761.537 218.507 758.06 214.443C754.582 210.378 750.031 207.373 744.927 205.77L730.987 169H708.383L694.7 205.153C692.9 204.742 691.061 204.53 689.215 204.52C682.723 204.524 676.498 207.105 671.909 211.695C667.32 216.285 664.742 222.509 664.742 228.998C664.753 230.189 664.849 231.377 665.029 232.553C665.029 232.825 664.938 233.081 664.908 233.352C659.406 231.303 653.491 230.616 647.665 231.348C641.84 232.079 636.279 234.209 631.456 237.555C626.632 240.901 622.69 245.364 619.966 250.563C617.242 255.762 615.817 261.542 615.812 267.411C614.536 267.2 613.247 267.089 611.954 267.079C607.492 267.079 603.122 268.355 599.362 270.757C595.602 273.16 592.609 276.588 590.736 280.636C578.69 272.695 564.717 268.164 550.302 267.525C535.887 266.886 521.567 270.163 508.865 277.007C496.164 283.851 485.554 294.008 478.164 306.397C470.774 318.786 466.88 332.944 466.895 347.368C466.895 348.528 466.896 349.688 466.986 350.848C466.986 351.225 466.986 351.616 466.986 351.993C464.871 348.721 461.971 346.031 458.549 344.168C455.127 342.305 451.292 341.328 447.396 341.328C434.481 341.328 422.863 354.057 422.863 366.936" fill="#18181B"/>
<g clipPath="url(#clip0_1019_10722)">
<path d="M733.165 163.057H706.813C706.813 163.057 698.199 172.07 699.384 185.391C700.726 183.877 702.191 182.477 703.763 181.204C703.84 181.145 703.934 181.111 704.031 181.106C704.128 181.102 704.224 181.126 704.307 181.176C704.391 181.226 704.457 181.299 704.498 181.387C704.539 181.475 704.553 181.574 704.538 181.67C704.071 184.674 704.473 193.686 720 209C735.527 193.686 735.929 184.674 735.463 181.67C735.445 181.574 735.457 181.475 735.497 181.386C735.537 181.297 735.603 181.223 735.686 181.172C735.769 181.122 735.866 181.098 735.963 181.103C736.06 181.109 736.154 181.144 736.231 181.204C737.804 182.478 739.271 183.878 740.617 185.391C741.801 172.07 733.165 163.057 733.165 163.057Z" fill="url(#paint0_linear_1019_10722)"/>
<path d="M719.921 152.805C719.921 152.805 703.059 166.176 719.921 189.198C736.79 166.176 719.921 152.805 719.921 152.805Z" fill="#FFE697"/>
<path d="M719.921 161.351C719.921 161.351 709.871 169.338 719.921 183.096C730 169.338 719.921 161.351 719.921 161.351Z" fill="white"/>
<path d="M700.999 157.013L702.915 160.706C703.315 161.475 703.919 162.12 704.661 162.57C705.402 163.02 706.254 163.258 707.122 163.258H732.533C733.401 163.259 734.253 163.022 734.995 162.571C735.737 162.121 736.341 161.476 736.74 160.706L738.657 157.013H700.999Z" fill="#949494" stroke="#424242" stroke-width="2" stroke-miterlimit="10"/>
<path d="M695.572 150.023L698.041 154.777C698.556 155.768 699.334 156.599 700.29 157.18C701.246 157.76 702.342 158.067 703.461 158.067H736.194C737.313 158.068 738.41 157.761 739.366 157.181C740.322 156.6 741.1 155.769 741.614 154.777L744.084 150.023H695.572Z" fill="#4D4D4D" stroke="#424242" stroke-width="2" stroke-miterlimit="10"/>
<path d="M743.222 113.616C743.222 113.616 784.505 127.783 781.878 169.216C781.878 169.216 747.12 133.849 728.205 141.42L743.222 113.616Z" fill="#E02424"/>
<path d="M696.763 113.616C696.763 113.616 655.494 127.783 658.122 169.202C658.122 169.202 692.88 133.834 711.795 141.405L696.763 113.616Z" fill="#E02424"/>
<path d="M739.877 34.4139C734.997 21.9838 728.232 10.3769 719.821 0V0C711.492 10.2695 704.777 21.7456 699.908 34.0339C713.071 30.9811 726.774 31.1114 739.877 34.4139Z" fill="#E02424"/>
<path d="M740.423 35.8478L739.87 34.4139C717.782 28.7499 699.9 34.0411 699.9 34.0411L699.204 35.8478C680.971 83.0092 689.233 134.236 692.169 148.704C692.402 149.834 693.017 150.849 693.911 151.579C694.806 152.309 695.924 152.709 697.079 152.712H742.555C743.709 152.709 744.826 152.31 745.721 151.582C746.615 150.853 747.231 149.84 747.465 148.711C750.401 134.236 758.67 83.0092 740.423 35.8478Z" fill="white"/>
<path d="M718.995 89.4617C728.347 89.4617 735.929 81.8895 735.929 72.5487C735.929 63.208 728.347 55.6357 718.995 55.6357C709.643 55.6357 702.061 63.208 702.061 72.5487C702.061 81.8895 709.643 89.4617 718.995 89.4617Z" fill="#043146" stroke="#424242" stroke-width="2" stroke-miterlimit="10"/>
<path d="M724.717 85.315C731.34 82.6099 734.514 75.0541 731.806 68.4386C729.097 61.8232 721.532 58.6532 714.909 61.3583C708.285 64.0634 705.111 71.6192 707.82 78.2347C710.528 84.8501 718.093 88.0201 724.717 85.315Z" fill="#7C7C7C" stroke="#424242" stroke-width="2" stroke-miterlimit="10"/>
<path d="M718.995 85.3681C726.084 85.3681 731.83 79.6288 731.83 72.5489C731.83 65.4691 726.084 59.7297 718.995 59.7297C711.907 59.7297 706.16 65.4691 706.16 72.5489C706.16 79.6288 711.907 85.3681 718.995 85.3681Z" fill="#3EC2E5" stroke="#424242" stroke-width="2" stroke-miterlimit="10"/>
<g opacity="0.08">
<path opacity="0.08" d="M719.814 61.8949C722.224 61.8965 724.586 62.5768 726.628 63.8575C728.669 65.1383 730.308 66.9677 731.356 69.1361C730.533 66.145 728.65 63.554 726.059 61.8441C723.467 60.1342 720.342 59.4215 717.264 59.8384C714.186 60.2553 711.364 61.7734 709.322 64.1109C707.28 66.4485 706.157 69.4466 706.16 72.5489C706.158 74.4901 706.602 76.406 707.459 78.1483C706.917 76.2444 706.826 74.2406 707.193 72.2953C707.559 70.35 708.374 68.5166 709.572 66.94C710.771 65.3634 712.32 64.0869 714.097 63.2112C715.875 62.3356 717.832 61.885 719.814 61.8949Z" fill="black" stroke="#424242" stroke-width="2" stroke-miterlimit="10"/>
</g>
<path d="M720 118.778C706.167 150.231 720 177.418 720 177.418C720 177.418 733.833 150.231 720 118.778Z" fill="#E02424"/>
</g>
<defs>
<linearGradient id="paint0_linear_1019_10722" x1="720" y1="163.057" x2="720" y2="209" gradientUnits="userSpaceOnUse">
<stop offset="0.01" stop-color="#F7BD6F"/>
<stop offset="0.45" stop-color="#F39958"/>
<stop offset="1" stop-color="#ED6637"/>
</linearGradient>
<clipPath id="clip0_1019_10722">
<rect width="124" height="209" fill="white" transform="translate(658)"/>
</clipPath>
</defs>
</svg>
