<svg width="24" height="24" viewBox="0 0 24 24" fill="none" xmlns="http://www.w3.org/2000/svg">
<path d="M2.66667 0H21.3333C22.0406 0 22.7189 0.280951 23.219 0.781048C23.719 1.28115 24 1.95942 24 2.66667V21.3333C24 22.0406 23.719 22.7189 23.219 23.219C22.7189 23.719 22.0406 24 21.3333 24H2.66667C1.95942 24 1.28115 23.719 0.781048 23.219C0.280951 22.7189 0 22.0406 0 21.3333V2.66667C0 1.95942 0.280951 1.28115 0.781048 0.781048C1.28115 0.280951 1.95942 0 2.66667 0ZM19.6133 8.44C20.2533 7.90667 21 7.26667 21.3333 6.56C20.7867 6.84 20.1333 7.01333 19.4133 7.10667C20.08 6.62667 20.6267 6 20.9067 5.14667C20.2133 5.52 19.5067 5.84 18.6267 6C16.56 3.50667 11.6133 5.53333 12.4933 9.26667C9.01333 9.05333 6.89333 7.48 5.13333 5.54667C4.13333 7.17333 5 9.64 6.18667 10.32C5.57333 10.28 5.10667 10.0933 4.66667 9.88C4.72 11.9333 5.85333 12.92 7.44 13.4533C6.96 13.5467 6.42667 13.5733 5.92 13.4933C6.41333 14.92 7.44 15.8133 9.2 16C8 17.0133 5.78667 17.72 4 17.44C5.53333 18.4133 7.28 19.1867 9.70667 19.08C15.5867 18.8133 19.52 14.6 19.6133 8.44Z" fill="#A1A1AA"/>
</svg>
