<svg width="121" height="121" viewBox="0 0 121 121" fill="none" xmlns="http://www.w3.org/2000/svg">
<circle cx="60.5" cy="60.5" r="59" stroke="#36D910" stroke-width="3"/>
<path d="M34.105 78.7973C33.656 78.7966 33.222 78.636 32.8808 78.3442C31.3592 77.0594 30.1348 75.4595 29.2921 73.6551C28.4494 71.8507 28.0085 69.8848 28 67.8933C28 60.9922 33.1263 55.1956 40.1848 54.1099C40.6805 54.0336 41.1863 54.1573 41.5909 54.4538C41.9954 54.7504 42.2656 55.1955 42.342 55.6913C42.4183 56.187 42.2946 56.6928 41.9981 57.0974C41.7015 57.5019 41.2564 57.7721 40.7607 57.8485C35.5557 58.6478 31.7763 62.8835 31.7763 67.8996C31.789 69.3448 32.1149 70.7701 32.7315 72.0772C33.3481 73.3843 34.2408 74.5422 35.348 75.4711C35.6414 75.7219 35.8508 76.0567 35.9481 76.4302C36.0453 76.8037 36.0258 77.1981 35.8921 77.5602C35.7583 77.9223 35.5169 78.2347 35.2001 78.4553C34.8834 78.676 34.5067 78.7942 34.1207 78.7942L34.105 78.7973Z" fill="#36D910"/>
<path d="M39.4986 57.9177C39.0588 57.9172 38.6329 57.7632 38.2945 57.4823C37.9561 57.2013 37.7264 56.8111 37.6451 56.3789C37.4021 55.0722 37.2799 53.746 37.28 52.4169C37.2762 47.8299 38.7464 43.363 41.4739 39.6749C44.2014 35.9869 48.0418 33.2729 52.4288 31.9331C56.8158 30.5933 61.5173 30.6987 65.8399 32.2337C70.1624 33.7687 73.8774 36.6521 76.4369 40.4587C76.5805 40.664 76.6819 40.8957 76.7351 41.1406C76.7883 41.3854 76.7923 41.6383 76.7467 41.8847C76.7012 42.1311 76.6071 42.3659 76.4698 42.5755C76.3326 42.7851 76.1551 42.9654 75.9475 43.1057C75.74 43.246 75.5066 43.3436 75.2609 43.3928C75.0153 43.442 74.7623 43.4419 74.5167 43.3923C74.2711 43.3428 74.0378 43.2449 73.8305 43.1043C73.6231 42.9637 73.4458 42.7832 73.3089 42.5734C71.0471 39.1982 67.6885 36.7083 63.8016 35.525C59.9148 34.3417 55.7385 34.5379 51.9797 36.0802C48.2208 37.6225 45.1104 40.4163 43.1749 43.9886C41.2394 47.5609 40.5977 51.6923 41.3584 55.6834C41.4093 55.9563 41.3994 56.237 41.3294 56.5056C41.2594 56.7743 41.131 57.0242 40.9535 57.2375C40.7759 57.4509 40.5534 57.6224 40.302 57.74C40.0505 57.8576 39.7762 57.9182 39.4986 57.9177Z" fill="#36D910"/>
<path d="M77.227 81.853H48.8137C48.3129 81.853 47.8327 81.6541 47.4786 81.3C47.1245 80.9459 46.9255 80.4656 46.9255 79.9649C46.9255 79.4641 47.1245 78.9838 47.4786 78.6298C47.8327 78.2757 48.3129 78.0767 48.8137 78.0767H77.227C80.2522 78.078 83.1728 76.9702 85.4361 74.963C87.6994 72.9557 89.1483 70.1883 89.5085 67.1847C89.8687 64.1811 89.1152 61.1496 87.3906 58.6641C85.6661 56.1787 83.0902 54.4117 80.1505 53.6977C79.6707 53.5733 79.2591 53.2652 79.0045 52.8399C78.75 52.4147 78.6728 51.9064 78.7897 51.4247C78.9066 50.9431 79.2082 50.5267 79.6294 50.2655C80.0506 50.0043 80.5576 49.9191 81.041 50.0284C84.8781 50.9607 88.2403 53.2672 90.4913 56.5115C92.7423 59.7557 93.7259 63.7126 93.2561 67.6332C92.7862 71.5538 90.8954 75.1662 87.9415 77.7866C84.9877 80.4071 81.1757 81.8538 77.227 81.853Z" fill="#36D910"/>
<path d="M45.849 52.3602C45.7798 52.3602 45.7074 52.3602 45.635 52.3602C45.3885 52.3324 45.1498 52.2563 44.9327 52.1363C44.7156 52.0162 44.5242 51.8545 44.3696 51.6605C44.215 51.4664 44.1002 51.2438 44.0317 51.0053C43.9631 50.7668 43.9423 50.5172 43.9703 50.2707C44.3292 48.0234 45.1991 45.8885 46.513 44.0304C48.4987 41.1982 52.426 37.7523 59.8496 37.3936C60.3503 37.3694 60.8402 37.5451 61.2114 37.8821C61.5826 38.219 61.8048 38.6897 61.829 39.1904C61.8532 39.6912 61.6775 40.1811 61.3405 40.5523C61.0035 40.9235 60.5329 41.1456 60.0321 41.1698C55.3118 41.3964 51.7904 43.0894 49.6033 46.2049C48.6476 47.5449 48.0026 49.0812 47.7151 50.7018C47.6592 51.158 47.4388 51.5781 47.0953 51.8834C46.7517 52.1887 46.3086 52.3583 45.849 52.3602Z" fill="#36D910"/>
<path d="M31.2381 89.3174C30.8503 89.3208 30.4709 89.2047 30.1514 88.9848C29.8319 88.765 29.5879 88.4522 29.4524 88.0888C29.317 87.7254 29.2967 87.3291 29.3943 86.9538C29.492 86.5785 29.7029 86.2424 29.9983 85.9911L89.1379 34.6054C89.3251 34.4428 89.5425 34.3187 89.7777 34.2401C90.0129 34.1615 90.2612 34.13 90.5086 34.1473C90.7559 34.1647 90.9975 34.2307 91.2193 34.3414C91.4412 34.4521 91.6391 34.6055 91.8017 34.7927C91.9643 34.9799 92.0885 35.1973 92.1671 35.4325C92.2457 35.6676 92.2772 35.916 92.2598 36.1634C92.2424 36.4107 92.1765 36.6522 92.0658 36.8741C91.955 37.096 91.8017 37.2939 91.6145 37.4565L32.4749 88.839C32.134 89.1427 31.6947 89.3127 31.2381 89.3174Z" fill="#36D910"/>
</svg>
