<svg width="64" height="64" viewBox="0 0 64 64" fill="none" xmlns="http://www.w3.org/2000/svg">
<rect width="64" height="64" rx="4" fill="#27272A"/>
<path d="M18.9268 17.8594V13.1719C18.9268 12.5241 18.4026 12 17.7549 12C17.1071 12 16.583 12.5241 16.583 13.1719V17.8594C16.583 18.5071 17.1071 19.0312 17.7549 19.0312C18.4026 19.0312 18.9268 18.5071 18.9268 17.8594ZM45.8799 12C45.2321 12 44.708 12.5241 44.708 13.1719V17.8594C44.708 18.5071 45.2321 19.0312 45.8799 19.0312C46.5276 19.0312 47.0518 18.5071 47.0518 17.8594V13.1719C47.0518 12.5241 46.5276 12 45.8799 12ZM38.5674 30.75L38.708 19.0312L33.3643 16.7812L31.8174 16.6875L30.9268 16.7344L22.583 21.375L24.7861 30.75H38.5674ZM35.6764 40.4684C35.6221 40.5227 35.5746 40.5812 35.5332 40.6426L37.6425 32.2057C37.7981 31.5786 37.4182 30.9423 36.7887 30.7855C36.1501 30.6287 35.523 31.0086 35.3674 31.638L33.0236 41.013C32.868 41.6402 33.2479 42.2765 33.8774 42.4333C34.5042 42.5899 35.1421 42.2101 35.2987 41.5807L35.3396 41.4173C35.3661 41.6759 35.4782 41.9273 35.6764 42.1255C36.1342 42.5832 36.8757 42.5832 37.3335 42.1255L46.7085 32.7505L45.0514 31.0934L35.6764 40.4684ZM28.2675 31.638C28.1096 31.0086 27.4664 30.6264 26.8461 30.7855C26.2167 30.9423 25.8368 31.5785 25.9924 32.2057L28.1016 40.6426C28.0602 40.5812 28.0128 40.5227 27.9585 40.4684L18.5835 31.0934L16.9264 32.7505L26.3014 42.1255C26.7592 42.5832 27.5007 42.5832 27.9585 42.1255C28.1567 41.9273 28.2687 41.6759 28.2953 41.4173L28.3361 41.5807C28.4946 42.2173 29.1433 42.5905 29.7575 42.4333C30.3869 42.2765 30.7668 41.6402 30.6112 41.013L28.2675 31.638Z" fill="url(#paint0_linear_1743_11557)"/>
<path d="M36.5049 40.125H27.1299C26.4821 40.125 25.958 40.6491 25.958 41.2969V50.8281C25.958 51.4759 26.4821 52 27.1299 52H36.5049C37.1526 52 37.6768 51.4759 37.6768 50.8281V41.2969C37.6768 40.6491 37.1526 40.125 36.5049 40.125ZM31.8174 16.6875C34.5361 16.6875 36.622 20.578 37.3955 27.0938C37.4892 27.7499 37.0204 28.3124 36.3643 28.4062H36.2236C35.6377 28.4062 35.1454 27.9609 35.0752 27.375C34.3721 21.4687 32.6143 19.0312 31.8174 19.0312C31.0204 19.0312 29.2626 21.4687 28.5596 27.375C28.4893 28.0077 27.88 28.4765 27.2705 28.4062C26.6143 28.3124 26.1456 27.7499 26.2393 27.0938C27.0127 20.578 29.0987 16.6875 31.8174 16.6875C23.4268 16.6875 16.583 23.5312 16.583 31.9219C16.583 32.578 17.0986 33.0938 17.7549 33.0938H45.8799C46.5362 33.0938 47.0518 32.578 47.0518 31.9219C47.0518 23.5312 40.208 16.6875 31.8174 16.6875Z" fill="url(#paint1_linear_1743_11557)"/>
<defs>
<linearGradient id="paint0_linear_1743_11557" x1="31.8174" y1="42.4691" x2="31.8174" y2="12" gradientUnits="userSpaceOnUse">
<stop stop-color="#ADDCFF"/>
<stop offset="0.5028" stop-color="#EAF6FF"/>
<stop offset="1" stop-color="#EAF6FF"/>
</linearGradient>
<linearGradient id="paint1_linear_1743_11557" x1="31.8174" y1="52" x2="31.8174" y2="16.6875" gradientUnits="userSpaceOnUse">
<stop stop-color="#5558FF"/>
<stop offset="1" stop-color="#00C0FF"/>
</linearGradient>
</defs>
</svg>
