<svg width="64" height="64" viewBox="0 0 64 64" fill="none" xmlns="http://www.w3.org/2000/svg">
<rect width="64" height="64" rx="4" fill="#27272A"/>
<path d="M31.8172 52C31.6924 52 31.5666 51.9794 31.4464 51.9394C22.5568 48.9765 16.583 40.6888 16.583 31.3174V17.8598C16.583 17.2121 17.1071 16.688 17.7549 16.688C22.123 16.688 26.3516 15.4074 29.9862 12.9847L31.1672 12.1974C31.5609 11.9342 32.0736 11.9342 32.4673 12.1974L33.6483 12.9847C37.2828 15.4074 41.5114 16.688 45.8796 16.688C46.5273 16.688 47.0514 17.2121 47.0514 17.8598V31.3174C47.0514 40.6888 41.0777 48.9765 32.188 51.9394C32.0678 51.9795 31.9419 52 31.8172 52Z" fill="url(#paint0_linear_1743_11572)"/>
<path d="M31.8172 42.6251C26.0015 42.6251 21.2705 37.8942 21.2705 32.0784C21.2705 26.2626 26.0015 21.5317 31.8172 21.5317C37.633 21.5317 42.364 26.2626 42.364 32.0784C42.364 37.8942 37.633 42.6251 31.8172 42.6251Z" fill="url(#paint1_linear_1743_11572)"/>
<path d="M30.6454 36.7658C30.3456 36.7658 30.0457 36.6513 29.8169 36.4224L27.4732 34.0787C27.0155 33.621 27.0155 32.8794 27.4732 32.4216C27.9309 31.9639 28.6725 31.9639 29.1303 32.4216L30.6455 33.9369L34.5044 30.0779C34.9621 29.6202 35.7038 29.6202 36.1615 30.0779C36.6192 30.5356 36.6192 31.2773 36.1615 31.735L31.4741 36.4224C31.245 36.6513 30.9452 36.7658 30.6454 36.7658Z" fill="url(#paint2_linear_1743_11572)"/>
<defs>
<linearGradient id="paint0_linear_1743_11572" x1="31.8172" y1="52" x2="31.8172" y2="12" gradientUnits="userSpaceOnUse">
<stop stop-color="#FD3A84"/>
<stop offset="1" stop-color="#FFA68D"/>
</linearGradient>
<linearGradient id="paint1_linear_1743_11572" x1="31.8172" y1="42.6251" x2="31.8172" y2="21.5317" gradientUnits="userSpaceOnUse">
<stop stop-color="#FFC8D1"/>
<stop offset="1" stop-color="#FFF6F7"/>
</linearGradient>
<linearGradient id="paint2_linear_1743_11572" x1="31.8173" y1="36.7658" x2="31.8173" y2="29.7346" gradientUnits="userSpaceOnUse">
<stop stop-color="#FD3A84"/>
<stop offset="1" stop-color="#FFA68D"/>
</linearGradient>
</defs>
</svg>
