<svg width="64" height="64" viewBox="0 0 64 64" fill="none" xmlns="http://www.w3.org/2000/svg">
<rect width="64" height="64" rx="4" fill="#27272A"/>
<path d="M17.9375 21.5312H34.3438C35.0001 21.5312 35.5156 21.0157 35.5156 20.3594C35.5156 19.703 35.0001 19.1875 34.3438 19.1875H17.9375C17.2812 19.1875 16.7656 19.703 16.7656 20.3594C16.7656 21.0157 17.2812 21.5312 17.9375 21.5312ZM33.1719 22.7031L12 25.0469V48.4844C12 49.1407 12.5155 49.6562 13.1719 49.6562H50.8281C51.4845 49.6562 52 49.1407 52 48.4844V25.0469L33.1719 22.7031Z" fill="url(#paint0_linear_1743_11514)"/>
<path d="M50.8281 14.5H13.1719C12.5155 14.5 12 15.0155 12 15.6719V25.0469H52V15.6719C52 15.0155 51.4845 14.5 50.8281 14.5ZM20.2812 21.5312H17.9375C17.2812 21.5312 16.7656 21.0157 16.7656 20.3594C16.7656 19.703 17.2812 19.1875 17.9375 19.1875H20.2812C20.9376 19.1875 21.4531 19.703 21.4531 20.3594C21.4531 21.0157 20.9376 21.5312 20.2812 21.5312ZM27.3125 21.5312H24.9688C24.3124 21.5312 23.7969 21.0157 23.7969 20.3594C23.7969 19.703 24.3124 19.1875 24.9688 19.1875H27.3125C27.9688 19.1875 28.4844 19.703 28.4844 20.3594C28.4844 21.0157 27.9688 21.5312 27.3125 21.5312ZM34.3438 21.5312H32C31.3437 21.5312 30.8281 21.0157 30.8281 20.3594C30.8281 19.703 31.3437 19.1875 32 19.1875H34.3438C35.0001 19.1875 35.5156 19.703 35.5156 20.3594C35.5156 21.0157 35.0001 21.5312 34.3438 21.5312ZM43.7188 37.9375H34.3438C33.696 37.9375 33.1719 38.4616 33.1719 39.1094C33.1719 39.7571 33.696 40.2812 34.3438 40.2812H43.7188C44.3665 40.2812 44.8906 39.7571 44.8906 39.1094C44.8906 38.4616 44.3665 37.9375 43.7188 37.9375ZM43.7188 42.625H20.2812C19.6335 42.625 19.1094 43.1491 19.1094 43.7969C19.1094 44.4446 19.6335 44.9688 20.2812 44.9688H43.7188C44.3665 44.9688 44.8906 44.4446 44.8906 43.7969C44.8906 43.1491 44.3665 42.625 43.7188 42.625ZM20.2812 40.2812H29.6562C30.304 40.2812 30.8281 39.7571 30.8281 39.1094V29.7344C30.8281 29.0866 30.304 28.5625 29.6562 28.5625H20.2812C19.6335 28.5625 19.1094 29.0866 19.1094 29.7344V39.1094C19.1094 39.7571 19.6335 40.2812 20.2812 40.2812ZM43.7188 33.25H34.3438C33.696 33.25 33.1719 33.7741 33.1719 34.4219C33.1719 35.0696 33.696 35.5938 34.3438 35.5938H43.7188C44.3665 35.5938 44.8906 35.0696 44.8906 34.4219C44.8906 33.7741 44.3665 33.25 43.7188 33.25ZM43.7188 28.5625H34.3438C33.696 28.5625 33.1719 29.0866 33.1719 29.7344C33.1719 30.3821 33.696 30.9062 34.3438 30.9062H43.7188C44.3665 30.9062 44.8906 30.3821 44.8906 29.7344C44.8906 29.0866 44.3665 28.5625 43.7188 28.5625Z" fill="url(#paint1_linear_1743_11514)"/>
<defs>
<linearGradient id="paint0_linear_1743_11514" x1="32" y1="49.6562" x2="32" y2="19.1875" gradientUnits="userSpaceOnUse">
<stop stop-color="#5558FF"/>
<stop offset="1" stop-color="#00C0FF"/>
</linearGradient>
<linearGradient id="paint1_linear_1743_11514" x1="32" y1="44.9688" x2="32" y2="14.5" gradientUnits="userSpaceOnUse">
<stop stop-color="#ADDCFF"/>
<stop offset="0.5028" stop-color="#EAF6FF"/>
<stop offset="1" stop-color="#EAF6FF"/>
</linearGradient>
</defs>
</svg>
