<svg width="64" height="64" viewBox="0 0 64 64" fill="none" xmlns="http://www.w3.org/2000/svg">
<rect width="64" height="64" rx="4" fill="#27272A"/>
<path d="M23.7188 14.3438H17.8594C17.2116 14.3438 16.6875 14.8679 16.6875 15.5156C16.6875 16.1634 17.2116 16.6875 17.8594 16.6875H23.7188C24.3665 16.6875 24.8906 16.1634 24.8906 15.5156C24.8906 14.8679 24.3665 14.3438 23.7188 14.3438ZM35.5156 14.3438H28.4844C27.8366 14.3438 27.3125 14.8679 27.3125 15.5156C27.3125 16.1634 27.8366 16.6875 28.4844 16.6875H35.5156C36.1634 16.6875 36.6875 16.1634 36.6875 15.5156C36.6875 14.8679 36.1634 14.3438 35.5156 14.3438ZM40.2812 16.6875H46.1406C46.7884 16.6875 47.3125 16.1634 47.3125 15.5156C47.3125 14.8679 46.7884 14.3438 46.1406 14.3438H40.2812C39.6335 14.3438 39.1094 14.8679 39.1094 15.5156C39.1094 16.1634 39.6335 16.6875 40.2812 16.6875ZM23.7188 47.3125H17.8594C17.2116 47.3125 16.6875 47.8366 16.6875 48.4844C16.6875 49.1321 17.2116 49.6562 17.8594 49.6562H23.7188C24.3665 49.6562 24.8906 49.1321 24.8906 48.4844C24.8906 47.8366 24.3665 47.3125 23.7188 47.3125ZM35.5156 47.3125H28.4844C27.8366 47.3125 27.3125 47.8366 27.3125 48.4844C27.3125 49.1321 27.8366 49.6562 28.4844 49.6562H35.5156C36.1634 49.6562 36.6875 49.1321 36.6875 48.4844C36.6875 47.8366 36.1634 47.3125 35.5156 47.3125ZM46.1406 47.3125H40.2812C39.6335 47.3125 39.1094 47.8366 39.1094 48.4844C39.1094 49.1321 39.6335 49.6562 40.2812 49.6562H46.1406C46.7884 49.6562 47.3125 49.1321 47.3125 48.4844C47.3125 47.8366 46.7884 47.3125 46.1406 47.3125ZM16.6875 40.2812C16.6875 39.6335 16.1634 39.1094 15.5156 39.1094C14.8679 39.1094 14.3438 39.6335 14.3438 40.2812V46.1406C14.3438 46.7884 14.8679 47.3125 15.5156 47.3125C16.1634 47.3125 16.6875 46.7884 16.6875 46.1406V40.2812ZM15.5156 36.6875C16.1634 36.6875 16.6875 36.1634 16.6875 35.5156V28.4844C16.6875 27.8366 16.1634 27.3125 15.5156 27.3125C14.8679 27.3125 14.3438 27.8366 14.3438 28.4844V35.5156C14.3438 36.1634 14.8679 36.6875 15.5156 36.6875ZM15.5156 24.8906C16.1634 24.8906 16.6875 24.3665 16.6875 23.7188V17.8594C16.6875 17.2116 16.1634 16.6875 15.5156 16.6875C14.8679 16.6875 14.3438 17.2116 14.3438 17.8594V23.7188C14.3438 24.3665 14.8679 24.8906 15.5156 24.8906ZM48.4844 39.1094C47.8366 39.1094 47.3125 39.6335 47.3125 40.2812V46.1406C47.3125 46.7884 47.8366 47.3125 48.4844 47.3125C49.1321 47.3125 49.6562 46.7884 49.6562 46.1406V40.2812C49.6562 39.6335 49.1321 39.1094 48.4844 39.1094ZM48.4844 27.3125C47.8366 27.3125 47.3125 27.8366 47.3125 28.4844V35.5156C47.3125 36.1634 47.8366 36.6875 48.4844 36.6875C49.1321 36.6875 49.6562 36.1634 49.6562 35.5156V28.4844C49.6562 27.8366 49.1321 27.3125 48.4844 27.3125ZM48.4844 16.6875C47.8366 16.6875 47.3125 17.2116 47.3125 17.8594V23.7188C47.3125 24.3665 47.8366 24.8906 48.4844 24.8906C49.1321 24.8906 49.6562 24.3665 49.6562 23.7188V17.8594C49.6562 17.2116 49.1321 16.6875 48.4844 16.6875ZM27.7324 27.7031C26.0262 29.4019 26.1406 32.9235 26.1406 35.5156L35.5156 36.6875C36.1634 36.6875 36.6875 36.1634 36.6875 35.5156L35.5156 26.1406C32.9384 26.1406 29.4289 26.0141 27.7324 27.7031Z" fill="url(#paint0_linear_1743_11529)"/>
<path d="M35.5156 26.1406V20.2812C35.5156 19.6335 34.9915 19.1094 34.3438 19.1094H20.2812C19.6335 19.1094 19.1094 19.6335 19.1094 20.2812V34.3438C19.1094 34.9915 19.6335 35.5156 20.2812 35.5156H26.1406C26.1406 30.3463 30.3463 26.1406 35.5156 26.1406ZM35.5156 26.1406V34.3438C35.5156 34.9915 34.9915 35.5156 34.3438 35.5156H26.1406C26.1406 40.6849 30.3463 44.8906 35.5156 44.8906C40.6849 44.8906 44.8906 40.6849 44.8906 35.5156C44.8906 30.3463 40.6849 26.1406 35.5156 26.1406ZM17.8594 44.9688H13.1719C12.5241 44.9688 12 45.4929 12 46.1406V50.8281C12 51.4759 12.5241 52 13.1719 52H17.8594C18.5071 52 19.0312 51.4759 19.0312 50.8281V46.1406C19.0312 45.4929 18.5071 44.9688 17.8594 44.9688ZM17.8594 12H13.1719C12.5241 12 12 12.5241 12 13.1719V17.8594C12 18.5071 12.5241 19.0312 13.1719 19.0312H17.8594C18.5071 19.0312 19.0312 18.5071 19.0312 17.8594V13.1719C19.0312 12.5241 18.5071 12 17.8594 12ZM50.8281 44.9688H46.1406C45.4929 44.9688 44.9688 45.4929 44.9688 46.1406V50.8281C44.9688 51.4759 45.4929 52 46.1406 52H50.8281C51.4759 52 52 51.4759 52 50.8281V46.1406C52 45.4929 51.4759 44.9688 50.8281 44.9688ZM50.8281 12H46.1406C45.4929 12 44.9688 12.5241 44.9688 13.1719V17.8594C44.9688 18.5071 45.4929 19.0312 46.1406 19.0312H50.8281C51.4759 19.0312 52 18.5071 52 17.8594V13.1719C52 12.5241 51.4759 12 50.8281 12Z" fill="url(#paint1_linear_1743_11529)"/>
<defs>
<linearGradient id="paint0_linear_1743_11529" x1="32" y1="49.6562" x2="32" y2="14.3438" gradientUnits="userSpaceOnUse">
<stop stop-color="#FFE59A"/>
<stop offset="1" stop-color="#FFFFD5"/>
</linearGradient>
<linearGradient id="paint1_linear_1743_11529" x1="32" y1="52" x2="32" y2="12" gradientUnits="userSpaceOnUse">
<stop stop-color="#FD5900"/>
<stop offset="1" stop-color="#FFDE00"/>
</linearGradient>
</defs>
</svg>
