<svg width="28" height="28" viewBox="0 0 28 28" fill="none" xmlns="http://www.w3.org/2000/svg">
<path fill-rule="evenodd" clip-rule="evenodd" d="M5.9272 4.89519C6.07753 4.75087 6.27596 4.66669 6.48041 4.66669H25.5661C25.9149 4.66669 26.0892 5.08761 25.8427 5.33415L22.0725 9.10438C21.9282 9.2487 21.7297 9.33288 21.5193 9.33288H2.43357C2.08481 9.33288 1.91043 8.91196 2.15697 8.66542L5.9272 4.89519ZM5.9272 18.9719C6.07152 18.8276 6.26995 18.7434 6.48041 18.7434H25.5661C25.9149 18.7434 26.0892 19.1644 25.8427 19.4109L22.0725 23.1811C21.9282 23.3254 21.7297 23.4096 21.5193 23.4096H2.43357C2.08481 23.4096 1.91043 22.9887 2.15697 22.7422L5.9272 18.9719ZM21.5193 11.66C21.7297 11.66 21.9282 11.7441 22.0725 11.8885L25.8427 15.6587C26.0892 15.9052 25.9149 16.3262 25.5661 16.3262H6.48041C6.26995 16.3262 6.07152 16.242 5.9272 16.0977L2.15697 12.3274C1.91043 12.0809 2.08481 11.66 2.43357 11.66H21.5193Z" fill="white"/>
</svg>
