<svg width="930" height="205" viewBox="0 0 930 205" fill="none" xmlns="http://www.w3.org/2000/svg">
<path d="M267.701 113.937H285.515C285.515 118.005 286.729 121.121 289.157 123.287C291.42 125.353 294.783 126.387 299.244 126.387C303.017 126.387 305.937 125.763 308.004 124.517C310.07 123.27 311.104 121.515 311.104 119.251C311.104 118.169 310.858 117.168 310.366 116.25C309.874 115.331 309.185 114.626 308.299 114.134C306.987 113.445 303.673 112.313 298.359 110.738C293.044 109.164 288.632 107.671 285.121 106.26C279.938 104.193 275.985 101.454 273.262 98.0423C270.539 94.6305 269.178 90.6774 269.178 86.1829C269.178 79.2937 271.786 73.7987 277.002 69.6979C282.218 65.5972 289.255 63.5468 298.113 63.5468C306.839 63.5468 313.761 65.6956 318.879 69.9932C323.996 74.2908 326.555 80.0974 326.555 87.4132H309.086C308.692 84.0998 307.495 81.6229 305.494 79.9826C303.493 78.3423 300.639 77.5222 296.932 77.5222C293.946 77.5222 291.519 78.1291 289.649 79.3429C287.779 80.5567 286.844 82.1314 286.844 84.067C286.844 87.2491 291.289 90.2837 300.179 93.1706L303.87 94.3516L304.608 94.5977C313.695 97.5174 319.42 99.9286 321.782 101.831C324.144 103.734 325.932 105.998 327.146 108.622C328.36 111.214 328.967 114.052 328.967 117.135C328.967 124.32 326.194 129.93 320.65 133.965C315.106 138 307.364 140.018 297.424 140.018C288.008 140.018 280.84 137.869 275.919 133.571C273.328 131.308 271.343 128.601 269.965 125.452C268.456 122.04 267.701 118.202 267.701 113.937ZM355.835 101.831C355.835 109.246 357.327 114.921 360.313 118.858C363.331 122.762 367.645 124.714 373.255 124.714C378.864 124.714 383.195 122.745 386.246 118.808C389.297 114.872 390.822 109.213 390.822 101.831C390.822 94.5485 389.297 88.9222 386.246 84.9527C383.228 80.9504 378.897 78.9492 373.255 78.9492C367.678 78.9492 363.38 80.934 360.362 84.9035C357.344 88.8402 355.835 94.4829 355.835 101.831ZM336.988 101.831C336.988 90.0869 340.235 80.7864 346.731 73.9299C353.227 67.0735 362.068 63.6452 373.255 63.6452C384.442 63.6452 393.316 67.0735 399.877 73.9299C406.471 80.7864 409.768 90.0869 409.768 101.831C409.768 113.543 406.471 122.844 399.877 129.733C393.316 136.589 384.442 140.018 373.255 140.018C362.166 140.018 353.341 136.606 346.78 129.782C340.252 122.926 336.988 113.609 336.988 101.831ZM421.43 138V65.5152H440.031V122.302H475.117V138H421.43Z" fill="#2DD729"/>
<path d="M479.3 113.937H497.114C497.114 118.005 498.328 121.121 500.755 123.287C503.019 125.353 506.381 126.387 510.843 126.387C514.616 126.387 517.535 125.763 519.602 124.517C521.669 123.27 522.702 121.515 522.702 119.251C522.702 118.169 522.456 117.168 521.964 116.25C521.472 115.331 520.783 114.626 519.897 114.134C518.585 113.445 515.272 112.313 509.957 110.738C504.643 109.164 500.23 107.671 496.72 106.26C491.537 104.193 487.584 101.454 484.861 98.0423C482.138 94.6305 480.776 90.6774 480.776 86.1829C480.776 79.2937 483.384 73.7987 488.601 69.6979C493.817 65.5972 500.854 63.5468 509.711 63.5468C518.438 63.5468 525.36 65.6956 530.477 69.9932C535.595 74.2908 538.154 80.0974 538.154 87.4132H520.685C520.291 84.0998 519.094 81.6229 517.093 79.9826C515.091 78.3423 512.237 77.5222 508.53 77.5222C505.545 77.5222 503.117 78.1291 501.247 79.3429C499.377 80.5567 498.442 82.1314 498.442 84.067C498.442 87.2491 502.888 90.2837 511.778 93.1706L515.469 94.3516L516.207 94.5977C525.294 97.5174 531.019 99.9286 533.381 101.831C535.743 103.734 537.531 105.998 538.744 108.622C539.958 111.214 540.565 114.052 540.565 117.135C540.565 124.32 537.793 129.93 532.249 133.965C526.705 138 518.962 140.018 509.022 140.018C499.607 140.018 492.439 137.869 487.518 133.571C484.926 131.308 482.941 128.601 481.564 125.452C480.055 122.04 479.3 118.202 479.3 113.937ZM551.588 138V65.5152H570.238V91.2515H595.63V65.5152H614.28V138H595.63V107.441H570.238V138H551.588ZM644.495 101.831C644.495 109.246 645.987 114.921 648.973 118.858C651.991 122.762 656.305 124.714 661.915 124.714C667.524 124.714 671.855 122.745 674.906 118.808C677.957 114.872 679.482 109.213 679.482 101.831C679.482 94.5485 677.957 88.9222 674.906 84.9527C671.888 80.9504 667.557 78.9492 661.915 78.9492C656.338 78.9492 652.04 80.934 649.022 84.9035C646.004 88.8402 644.495 94.4829 644.495 101.831ZM625.648 101.831C625.648 90.0869 628.895 80.7864 635.391 73.9299C641.887 67.0735 650.728 63.6452 661.915 63.6452C673.101 63.6452 681.975 67.0735 688.537 73.9299C695.131 80.7864 698.428 90.0869 698.428 101.831C698.428 113.543 695.131 122.844 688.537 129.733C681.975 136.589 673.101 140.018 661.915 140.018C650.826 140.018 642.001 136.606 635.44 129.782C628.912 122.926 625.648 113.609 625.648 101.831ZM728.002 96.566H741.83C745.537 96.566 748.276 95.8771 750.048 94.4993C751.819 93.1214 752.705 90.9234 752.705 87.9053C752.705 85.248 751.852 83.2796 750.146 82.0002C748.44 80.6879 745.832 80.0318 742.322 80.0318H728.002V96.566ZM709.549 138V65.5152H744.241C753.394 65.5152 760.152 67.1555 764.515 70.4361C768.879 73.7167 771.06 78.8016 771.06 85.6909C771.06 89.726 770.142 93.2034 768.304 96.1232C766.467 99.0101 763.58 101.454 759.644 103.455C762.793 104.636 765.04 106.293 766.385 108.425C767.074 109.541 767.615 111.017 768.009 112.854C768.436 114.659 768.649 116.84 768.649 119.399L768.944 125.353C768.944 128.24 769.207 130.52 769.731 132.193C770.256 133.866 770.994 134.965 771.946 135.49V138H752.508C751.983 136.589 751.573 135.047 751.278 133.374C751.016 131.701 750.884 129.733 750.884 127.469C750.884 125.107 750.852 123.319 750.786 122.105C750.72 120.859 750.622 119.842 750.491 119.055C750.195 116.233 749.244 114.166 747.637 112.854C746.029 111.542 743.618 110.886 740.403 110.886H728.002V138H709.549ZM798.174 138V80.2287H777.408V65.5152H837.492V80.2287H816.726V138H798.174ZM842.167 113.937H859.981C859.981 118.005 861.195 121.121 863.622 123.287C865.886 125.353 869.248 126.387 873.71 126.387C877.483 126.387 880.402 125.763 882.469 124.517C884.536 123.27 885.569 121.515 885.569 119.251C885.569 118.169 885.323 117.168 884.831 116.25C884.339 115.331 883.65 114.626 882.765 114.134C881.452 113.445 878.139 112.313 872.824 110.738C867.51 109.164 863.097 107.671 859.587 106.26C854.404 104.193 850.451 101.454 847.728 98.0423C845.005 94.6305 843.643 90.6774 843.643 86.1829C843.643 79.2937 846.251 73.7987 851.468 69.6979C856.684 65.5972 863.721 63.5468 872.578 63.5468C881.305 63.5468 888.227 65.6956 893.344 69.9932C898.462 74.2908 901.021 80.0974 901.021 87.4132H883.552C883.158 84.0998 881.961 81.6229 879.96 79.9826C877.958 78.3423 875.104 77.5222 871.397 77.5222C868.412 77.5222 865.984 78.1291 864.114 79.3429C862.244 80.5567 861.309 82.1314 861.309 84.067C861.309 87.2491 865.755 90.2837 874.645 93.1706L878.336 94.3516L879.074 94.5977C888.161 97.5174 893.886 99.9286 896.248 101.831C898.61 103.734 900.398 105.998 901.612 108.622C902.825 111.214 903.432 114.052 903.432 117.135C903.432 124.32 900.66 129.93 895.116 133.965C889.572 138 881.83 140.018 871.889 140.018C862.474 140.018 855.306 137.869 850.385 133.571C847.793 131.308 845.809 128.601 844.431 125.452C842.922 122.04 842.167 118.202 842.167 113.937Z" fill="#5B5959"/>
<path d="M126.71 6.89C107.849 6.88802 89.4112 12.4791 73.728 22.9562C58.0448 33.4333 45.8207 48.3258 38.6016 65.7504C31.3825 83.175 29.4926 102.349 33.171 120.848C36.8493 139.346 45.9307 156.339 59.2666 169.676C72.6026 183.014 89.5941 192.097 108.092 195.777C126.591 199.457 145.765 197.569 163.19 190.352C180.616 183.135 195.509 170.912 205.988 155.23C216.467 139.548 222.06 121.111 222.06 102.25C222.06 76.9607 212.014 52.707 194.133 34.8238C176.252 16.9407 151.999 6.89265 126.71 6.89ZM164.52 44.12C167.744 44.12 170.895 45.076 173.576 46.867C176.256 48.6581 178.345 51.2038 179.579 54.1823C180.813 57.1607 181.136 60.4381 180.507 63.6C179.878 66.7619 178.325 69.6662 176.046 71.9458C173.766 74.2254 170.862 75.7779 167.7 76.4068C164.538 77.0357 161.261 76.7129 158.282 75.4792C155.304 74.2455 152.758 72.1563 150.967 69.4758C149.176 66.7953 148.22 63.6438 148.22 60.42C148.22 58.2795 148.642 56.1599 149.461 54.1823C150.28 52.2047 151.48 50.4078 152.994 48.8942C154.508 47.3806 156.305 46.1799 158.282 45.3608C160.26 44.5416 162.379 44.12 164.52 44.12ZM143 87.94H182.08C184.21 88.01 186 88.56 186.96 90.72C188.06 93.2 186.8 94.94 185.13 96.62C179.5 102.25 173.86 107.87 168.34 113.62C167.098 114.998 165.37 115.841 163.52 115.97H123.37C122.457 116.011 121.554 115.769 120.784 115.277C120.014 114.784 119.415 114.066 119.07 113.22C118.15 111.04 118.95 109.32 120.53 107.77C126.53 101.91 132.48 96.03 138.38 90.13C139.589 88.8436 141.239 88.0614 143 87.94ZM61.5799 50.8C62.4799 48.69 64.1399 48.05 66.1899 47.95C78.8166 47.95 91.4466 47.95 104.08 47.95H109.4C111.89 48.1 112.16 48.95 116.09 53.04C116.51 53.47 116.95 53.89 117.37 54.33C121.88 58.98 126.37 63.62 130.88 68.33C133.02 70.56 133.24 72.97 131.59 75.04C130.47 76.45 128.95 76.71 127.3 76.74H85.6099C83.7186 76.6136 81.9506 75.7565 80.6799 74.35C74.9066 68.35 69.0866 62.4333 63.2199 56.6C61.5599 54.9 60.5899 53.14 61.5799 50.8ZM106.27 99.64C106.27 102.865 105.313 106.018 103.521 108.699C101.728 111.38 99.1809 113.469 96.2007 114.702C93.2205 115.935 89.9416 116.256 86.7789 115.625C83.6162 114.993 80.7118 113.438 78.4334 111.155C76.155 108.873 74.605 105.965 73.9794 102.802C73.3539 99.6377 73.681 96.3594 74.9193 93.3814C76.1576 90.4035 78.2515 87.8599 80.9359 86.0724C83.6204 84.285 86.7748 83.3341 89.9999 83.34C94.3177 83.3479 98.456 85.0688 101.506 88.1248C104.557 91.1807 106.27 95.3222 106.27 99.64ZM182.58 150.64C179.51 154.11 176.17 155.12 171.75 155.1C137 155 102.25 155 67.4899 155C66.709 155.018 65.9277 154.992 65.1499 154.92C64.3208 154.851 63.5304 154.539 62.8776 154.023C62.2248 153.508 61.7386 152.811 61.4799 152.02C61.1609 151.239 61.0856 150.38 61.2641 149.555C61.4426 148.73 61.8664 147.979 62.4799 147.4C68.5699 141.06 74.6099 134.66 80.8399 128.47C82.0759 127.536 83.6025 127.068 85.1499 127.15C103.27 127.06 121.4 127.09 139.53 127.09H193.13C193.71 127.09 194.3 127.09 194.89 127.09C195.809 127.085 196.708 127.361 197.466 127.88C198.224 128.4 198.805 129.139 199.132 129.999C199.458 130.858 199.514 131.797 199.292 132.689C199.07 133.581 198.581 134.384 197.89 134.99C192.69 140.2 187.39 145.2 182.58 150.65V150.64Z" fill="#2DD729"/>
</svg>
